<?xml version="1.0" encoding="UTF-8" standalone="no"?>
<svg xmlns:svg="http://www.w3.org/2000/svg" xmlns="http://www.w3.org/2000/svg" height="64" width="64" version="1.1">
  <path fill="#bebebe" d="M 32,40 C 26.010532,41.769588 19.528872,44.604042 13.632812,46.974609 10.975496,48.046253 11.740205,51.997243 14.605469,52 l 36.789062,0 c 2.944617,-0.0025 3.62785,-4.120972 0.841797,-5.074219 C 45.267367,45.238114 38.995503,41.246021 32,40 Z" />
  <path fill="#bebebe" d="M 6 12 C 4.892 12 4 12.892 4 14 L 4 42 C 4 43.108 4.892 44 6 44 L 58 44 C 59.108 44 60 43.108 60 42 L 60 14 C 60 12.892 59.108 12 58 12 L 6 12 z M 32 16 A 12 12 0 0 1 44 28 A 12 12 0 0 1 32 40 A 12 12 0 0 1 20 28 A 12 12 0 0 1 32 16 z " />
  <circle fill="#bebebe"  cx="32" cy="28" r="7" />
</svg>
