<?xml version="1.0" encoding="UTF-8" standalone="no"?>
<svg xmlns:svg="http://www.w3.org/2000/svg" xmlns="http://www.w3.org/2000/svg" version="1.1" width="155" height="32" viewBox="0 0 155 32">
  <path fill="#bebebe" d="M 88.287109,0.66992188 C 87.300618,0.66601762 86.354621,0.80678054 85.763672,1.1230469 83.990218,2.0721711 81.75384,5.6558639 81.09375,8.6054688 80.568713,10.951588 80.256119,11.447736 79.142578,11.712891 78.413506,11.886495 77.52917,12.256441 77.177734,12.533203 76.723526,12.890909 75.93105,12.486048 74.4375,11.136719 72.500511,9.3867686 72.131383,9.2525921 69.695312,9.4101562 67.150054,9.5747839 67.045787,9.5302824 66.890625,8.1835938 66.731644,6.8037455 66.682794,6.7867635 63.173828,6.8515625 c -4.071311,0.075183 -4.783673,0.9865308 -1.759766,2.25 1.968794,0.8226137 2.344815,2.1630005 0.988282,3.5195315 -1.50294,1.502941 -3.893097,0.88168 -7.650391,-1.986328 -2.692712,-2.0553942 -4.325595,-2.3020922 -5.265625,-0.7968754 -0.352143,0.5638714 -1.129824,1.0253904 -1.728516,1.0253904 -3.272946,0 -7.022017,4.978859 -6.36914,8.458985 0.45097,2.403884 2.533115,4.732032 4.791016,5.355468 4.244181,1.171876 9.404895,-2.194424 10.597656,-6.914062 0.600806,-2.377328 0.755697,-2.552659 2.382812,-2.677734 3.08713,-0.237309 3.163887,0.05305 1.810547,6.832031 -0.671762,3.364906 -1.363861,6.880556 -1.537109,7.814453 l 0.002,0 c -0.307534,1.657771 -0.277163,1.695417 1.332031,1.539062 1.520527,-0.147745 1.679007,-0.338764 2.03125,-2.466796 0.801607,-4.842846 0.674944,-4.679695 3.371094,-4.341797 4.449605,0.557655 8.872661,-2.834105 9.625,-7.378907 0.49043,-2.962686 0.621182,-3.146484 2.261719,-3.146484 1.923576,0 1.954083,0.460707 0.496093,7.609375 -0.582076,2.854003 -0.985174,5.944328 -0.896484,6.865234 0.134958,1.40126 0.370866,1.673829 1.443359,1.673829 1.049144,-10e-7 1.307986,-0.280091 1.429688,-1.539063 0.129033,-1.334864 1.72059,-10.106881 2.441406,-13.455078 0.226177,-1.050586 0.542448,-1.154297 3.541016,-1.154297 1.810578,0 3.407411,0.187204 3.548828,0.416016 0.141413,0.228813 -0.0045,1.943995 -0.324219,3.810546 -0.689607,4.02592 -0.179892,5.646051 2.009766,6.390626 2.150369,0.731208 4.221052,-0.05417 7.005859,-2.660157 2.50225,-2.341576 3.41407,-2.549347 3.41407,-0.777343 0,0.53151 0.53941,1.590664 1.19726,2.355468 1.63239,1.89776 3.94624,1.800405 6.5293,-0.27539 2.36006,-1.896598 2.68917,-1.924549 3.74414,-0.314454 1.61646,2.467018 5.96271,2.6546 10.24609,0.441407 2.82733,-1.460859 9.04102,-7.964195 9.04102,-9.462891 0,-1.27118 -2.07991,-0.121494 -3.75586,2.076172 -2.58666,3.391842 -6.81615,6.248758 -9.73828,6.578125 -2.04077,0.230024 -2.38878,0.113748 -3.15821,-1.060547 -1.09063,-1.664534 -0.72027,-2.262588 1.67579,-2.697266 4.35849,-0.790686 7.41406,-3.347351 7.41406,-6.205078 0,-2.8273285 -4.38762,-4.2312126 -7.76563,-2.484375 -2.03752,1.053646 -4.50383,4.022436 -4.92187,5.925782 -0.39907,1.81697 -4.26326,6.146484 -5.48633,6.146484 -0.4367,0 -1.09249,-0.359615 -1.45703,-0.798828 -0.54907,-0.661581 -0.34407,-2.437244 1.20117,-10.353516 1.02586,-5.2554722 1.77674,-9.6451398 1.66797,-9.753906 -0.10876,-0.1087657 -1.9878,-0.2599474 -4.17578,-0.3359375 l -3.97852,-0.13867188 1.56641,1.40039058 c 0.8612,0.7694812 1.8758,1.5022193 2.25586,1.6289063 0.57841,0.1928798 0.58067,0.8911221 0.01,4.2929687 -0.79497,4.7369248 -1.18923,5.5839358 -4.523437,9.7011718 -2.846949,3.515553 -5.884039,5.49291 -6.890625,4.486328 -0.494783,-0.494788 -0.48939,-1.361346 0.02539,-4.095703 0.359015,-1.90696 0.754902,-3.846867 0.880859,-4.310547 0.47718,-1.756614 -1.005547,-2.337669 -5.320312,-2.08789 -4.765866,0.275891 -5.026696,0.02452 -4.007813,-3.837891 1.327851,-5.0336567 2.875941,-6.4417762 5.425782,-4.9355469 1.210153,0.7148541 1.65425,0.7695796 2.158203,0.265625 C 92.49097,2.8020059 92.51183,2.3981166 92.105469,1.75 91.688008,1.0841638 89.931261,0.67642897 88.287109,0.66992188 Z M 12.9375,3.6914062 C 6.7078051,3.6821416 0.66992188,6.6074702 0.66992188,9.6347656 0.66992187,11.176803 0.92431299,11.170836 2.8125,9.5820312 4.4104329,8.2374596 5.7949219,7.9051424 5.7949219,8.8671875 c 0,0.3121954 -0.6134075,3.7721305 -1.3632813,7.6875005 -1.3428266,7.011389 -1.3481664,7.134877 -0.3867187,8.197265 0.8436409,0.932215 1.4285849,1.05165 4.3105469,0.884766 C 15.188195,25.241064 21.943972,20.581223 23.513672,15.181641 25.437906,8.5625047 20.965015,3.7033452 12.9375,3.6914062 Z m 84.109375,1.1699219 c -0.413073,-0.022685 -1.19625,0.2234744 -2.324219,0.7714844 -2.125275,1.0325401 -2.792612,2.0003573 -1.955078,2.8378906 0.619355,0.6193641 1.189862,0.3613074 3.125,-1.4121093 C 97.393314,5.68327 97.73533,4.8991358 97.046875,4.8613281 Z M 11.224609,5.7753906 c 0.497887,-0.00742 1.055995,0.00858 1.699219,0.044922 5.158484,0.2914807 7.736328,2.7337007 7.736328,7.3261714 0,3.85534 -2.144482,7.197233 -5.832031,9.087891 -1.093235,0.560518 -3.221844,1.145076 -4.730469,1.300781 C 7.8236396,23.769854 7.2985707,23.66934 7.0214844,22.947266 6.83766,22.468227 7.2727845,19.149637 7.9882812,15.572266 9.3514238,8.7567712 9.2725572,8.003105 7.1679688,7.6757812 6.1715915,7.5208159 6.238172,7.4018313 7.7949219,6.5664062 8.789038,6.0329187 9.7309488,5.7976435 11.224609,5.7753906 Z m 28.945313,3.5410156 c -1.420165,0.00865 -3.412821,1.1929798 -5.488281,3.4121098 -1.551124,1.6585 -2.776992,2.594399 -2.976563,2.271484 -0.186662,-0.302087 -0.190008,-0.791884 -0.0059,-1.089844 0.184114,-0.29796 0.191016,-1.121531 0.01367,-1.828125 -0.259912,-1.035601 -0.592925,-1.252406 -1.714844,-1.123047 -1.226171,0.141379 -1.408232,0.404507 -1.535156,2.210938 -0.07923,1.127744 -0.490865,3.79914 -0.914063,5.9375 -0.423212,2.138361 -0.621594,4.272639 -0.441406,4.742187 0.180184,0.469549 0.821596,0.845538 1.425781,0.835938 0.857357,-0.01363 1.521934,-0.892278 3.025391,-4.001953 1.05951,-2.191431 2.875251,-4.972569 4.035156,-6.179688 1.864814,-1.940704 2.30117,-2.158279 3.769531,-1.882812 1.846918,0.346483 3.162573,-0.659352 2.640625,-2.019532 C 41.669151,9.7292014 41.022021,9.3112168 40.169922,9.3164062 Z m 80.884768,1.7304688 c 0.65953,0.06775 1.10351,0.577915 1.10351,1.59375 0,1.469703 -1.46829,3.151472 -3.38672,3.880859 -2.90677,1.10515 -3.4547,0.348841 -1.76171,-2.427734 1.24698,-2.04512 2.94569,-3.159794 4.04492,-3.046875 z m -51.140628,0.408203 c 0.655941,-0.0078 1.12056,0.316126 1.839844,1.152344 2.203915,2.562206 1.153492,7.608809 -1.980468,9.519531 -2.086274,1.271967 -3.052052,1.300918 -4.492188,0.134766 -1.109948,-0.89878 -1.111171,-0.922675 -0.259766,-4.666016 0.909587,-3.999153 1.921783,-5.468482 4.15625,-6.029297 0.277671,-0.06969 0.517683,-0.108727 0.736328,-0.111328 z m -19.404296,0.945313 c 3.350534,0 4.36652,2.848742 2.490234,6.980468 -0.527169,1.160873 -1.497187,2.487005 -2.154297,2.947266 -3.02368,2.117866 -6.091797,0.314781 -6.091797,-3.580078 0,-2.06613 0.253112,-2.620293 1.990235,-4.357422 1.545458,-1.545452 2.387236,-1.990234 3.765625,-1.990234 z m 89.343754,1.103515 c -0.45372,0.04324 -1.08422,0.447693 -1.9629,1.220703 -0.902,0.793536 -1.29059,1.505286 -1.04101,1.90625 0.21908,0.351905 0.33521,1.936167 0.25781,3.521485 -0.10357,2.120503 0.0798,3.103222 0.69336,3.716797 1.14305,1.143051 2.46506,1.045812 3.62891,-0.267579 0.97404,-1.099166 0.97258,-1.100707 -0.375,-0.773437 -1.98448,0.48193 -2.63909,-0.571013 -2.03321,-3.267578 0.26965,-1.200151 0.7948,-2.376682 1.16797,-2.613281 0.8061,-0.511084 2.57365,-0.57086 3.73047,-0.126954 0.72638,0.278739 0.74014,0.453343 0.10938,1.416016 -0.39606,0.604445 -0.88157,1.838393 -1.08008,2.742188 -0.32438,1.476912 -0.18914,1.752096 1.3418,2.705078 2.87637,1.79049 5.88242,0.586791 7.35742,-2.94336 0.38524,-0.922016 1.0588,-1.675781 1.49609,-1.675781 0.43729,0 0.79492,-0.229784 0.79492,-0.511719 0,-0.281936 -0.37582,-0.513672 -0.83593,-0.513672 -0.46011,0 -1.62357,-0.484548 -2.58399,-1.078124 -1.54136,-0.952604 -1.93001,-1.004427 -3.32226,-0.427735 -1.37083,0.567816 -1.64049,0.542454 -2.05665,-0.201172 -0.3067,-0.548083 -1.13126,-0.855468 -2.29492,-0.855469 -1.38556,0 -1.88146,-0.243463 -2.08593,-1.02539 -0.17587,-0.672518 -0.45254,-0.990503 -0.90625,-0.947266 z m 8.27148,4.386719 c 0.26271,-5.4e-4 0.52202,0.05999 0.76758,0.191406 1.45472,0.778546 0.95627,4.032515 -0.79688,5.203125 -1.02002,0.681082 -2.31167,0.409198 -2.85156,-0.599609 -0.98671,-1.843694 1.04186,-4.791144 2.88086,-4.794922 z m -15.22461,4.890625 c -0.17363,-0.0026 -0.34511,0.0383 -0.49805,0.132812 -0.28655,0.177091 -0.38877,0.536373 -0.22656,0.798829 0.38481,0.622593 1.77149,0.619841 1.77149,-0.0039 0,-0.519156 -0.52598,-0.919824 -1.04688,-0.927734 z" />
</svg>
