<?xml version="1.0" encoding="UTF-8" standalone="no"?>
<svg xmlns:svg="http://www.w3.org/2000/svg" xmlns="http://www.w3.org/2000/svg" width="118" height="32" viewBox="0 0 118 32" version="1.1">
  <path fill="#bebebe" d="m 101.90359,23.98 0,-16.2300005 5.22,0 0,1.98 0.06,0 q 1.05,-2.4 3.93,-2.4 4.23,0 4.23,4.4100005 l 0,12.24 -5.4,0 0,-10.71 q 0,-1.92 -1.32,-1.92 -1.32,0 -1.32,1.92 l 0,10.71 -5.4,0 z m -7.644371,0 0,-16.2300005 5.4,0 0,16.2300005 -5.4,0 z m 0,-17.4000005 0,-4.02 5.4,0 0,4.02 -5.4,0 z M 78.673281,23.98 l 0,-21.4200005 5.4,0 0,7.02 0.06,0 q 0.75,-2.25 3.39,-2.25 2.49,0 3.66,1.74 1.32,1.9500005 1.32,6.4500005 0,4.62 -1.08,6.69 -1.11,2.19 -3.78,2.19 -2.73,0 -3.69,-2.64 l -0.06,0 0,2.22 -5.22,0 z m 5.4,-8.1 q 0,2.16 0.09,2.67 0.27,1.83 1.41,1.83 1.17,0 1.44,-1.8 0.09,-0.54 0.09,-2.7 0,-2.19 -0.09,-2.7 -0.27,-1.83 -1.44,-1.83 -1.14,0 -1.41,1.83 -0.09,0.51 -0.09,2.7 z m -6.974062,0.9 -8.01,0 0,2.13 q 0,2.19 1.47,2.19 1.53,0 1.53,-2.82 l 4.86,0 q -0.09,6.12 -6.36,6.12 -3.87,0 -5.4,-1.92 -1.5,-1.92 -1.5,-6.6 0,-4.62 1.62,-6.5700005 1.62,-1.98 5.28,-1.98 3.36,0 4.89,1.68 1.62,1.8300005 1.62,6.1200005 l 0,1.65 z m -5.04,-2.94 0,-0.72 q 0,-2.49 -1.5,-2.49 -1.47,0 -1.47,2.49 l 0,0.72 2.97,0 z m -18.405938,1.59 q 0,2.43 0.39,3.33 0.33,0.75 1.17,0.75 0.81,0 1.11,-0.75 0.39,-0.9 0.39,-3.33 0,-2.4 -0.39,-3.3 -0.3,-0.78 -1.11,-0.78 -0.81,0 -1.17,0.78 -0.39,0.9 -0.39,3.3 z m 3.24,-5.4300005 0,-2.25 5.04,0 0,15.9600005 q 0,5.79 -6.78,5.79 -2.94,0 -4.41,-0.9 -1.83,-1.08 -1.89,-3.66 l 4.86,0 q 0,1.26 1.35,1.26 1.65,0 1.65,-2.01 l 0,-3.09 -0.06,0 q -0.9,2.43 -3.66,2.43 -4.74,0 -4.74,-8.01 0,-4.5 1.32,-6.4500005 1.2,-1.74 3.69,-1.74 2.76,0 3.57,2.67 l 0.06,0 z m -10.2,13.9800005 -5.22,0 q -0.15,-0.45 -0.33,-1.83 l -0.06,0 q -0.93,2.25 -3.66,2.25 -4.5,0 -4.5,-4.77 0,-2.28 0.96,-3.45 0.99,-1.17 3.54,-1.77 l 2.13,-0.51 q 1.59,-0.39 1.59,-1.77 0,-1.5 -1.38,-1.5 -0.81,0 -1.17,0.48 -0.33,0.45 -0.36,1.68 l -4.68,0 q 0,-3.0900005 2.19,-4.4700005 1.56,-0.99 4.02,-0.99 3.12,0 4.62,1.02 1.8,1.23 1.8,4.2000005 l 0,7.92 q 0,2.55 0.51,3.51 z m -7.23,-3.21 q 1.68,0 1.68,-2.67 l 0,-1.95 -0.06,0 q -0.18,0.24 -0.75,0.39 -0.81,0.24 -1.08,0.36 -1.11,0.51 -1.11,2.1 0,1.77 1.32,1.77 z m -21.310312,3.21 0,-10.71 q 0,-1.92 -1.32,-1.92 -1.32,0 -1.32,1.92 l 0,10.71 -5.4,0 0,-16.2300005 5.22,0 0,1.98 0.06,0 q 1.05,-2.4 3.93,-2.4 2.97,0 3.96,2.49 1.14,-2.49 4.08,-2.49 4.23,0 4.23,4.4100005 l 0,12.24 -5.4,0 0,-10.71 q 0,-1.92 -1.32,-1.92 -1.32,0 -1.32,1.92 l 0,10.71 -5.4,0 z M 2.5,23.98 l 0,-21.4200005 5.58,0 0,21.4200005 -5.58,0 z" />
</svg>
