<?xml version="1.0" encoding="UTF-8" standalone="no"?>
<svg xmlns:svg="http://www.w3.org/2000/svg" xmlns="http://www.w3.org/2000/svg" height="64" width="64" version="1.1">
  <path fill="#bebebe" d="M 6 12 C 4.892 12 4 12.892 4 14 L 4 42 C 4 43.108 4.892 44 6 44 L 58 44 C 59.108 44 60 43.108 60 42 L 60 14 C 60 12.892 59.108 12 58 12 L 6 12 z M 32 16 A 12 12 0 0 1 44 28 A 12 12 0 0 1 32 40 A 12 12 0 0 1 20 28 A 12 12 0 0 1 32 16 z " />
  <circle fill="#bebebe" cx="32" cy="28" r="7" />
  <path fill="#bebebe" d="M 22 42 L 22 50.035156 L 13.015625 50.044922 A 2.9775426 2.9775426 0 0 0 13.023438 56 L 50.984375 55.955078 A 2.9775426 2.9775426 0 1 0 50.976562 50 L 42 50.009766 L 42 42 L 22 42 z " />
</svg>
