<?xml version="1.0" encoding="UTF-8" standalone="no"?>
<svg xmlns:svg="http://www.w3.org/2000/svg" xmlns="http://www.w3.org/2000/svg" viewBox="0 0 44 32" height="32" width="44" version="1.1">
  <path fill="#bebebe" d="m 21.99241,30.95833 c -0.643124,-0.26191 -1.053195,-0.7869 -1.053195,-1.34836 0,-0.72512 1.249832,-1.88493 2.031233,-1.88493 0.549801,0 0.580557,0.21727 0.183587,1.29693 -0.0572,0.15557 -0.01291,0.42505 0.09842,0.59882 0.257805,0.40239 0.815573,0.0928 1.267616,-0.70356 0.438218,-0.77202 0.127205,-1.17827 -1.264103,-1.65119 -2.065317,-0.70202 -2.546518,-1.64347 -1.694078,-3.31439 0.729725,-1.43038 2.294349,-2.487 3.977966,-2.6864 0.870068,-0.10305 1.083365,-0.0455 1.673788,0.45127 0.543482,0.45731 0.67665,0.72711 0.67665,1.37092 0,1.06521 -0.973683,2.17168 -1.823307,2.07195 -0.562941,-0.0661 -0.572648,-0.092 -0.518798,-1.38383 0.04323,-1.03712 -0.01019,-1.31649 -0.251755,-1.31649 -0.679186,0 -1.475631,2.04422 -1.013426,2.60115 0.130166,0.15684 0.858602,0.45351 1.618745,0.65927 0.949912,0.25713 1.482719,0.52771 1.703928,0.86531 0.984842,1.50307 -1.581174,4.21248 -4.18153,4.4152 -0.613684,0.0478 -1.257969,0.0291 -1.431746,-0.0417 z m -9.568708,-1.45759 c -0.537878,-0.53787 -0.584519,-1.16613 -0.218224,-2.93948 0.641288,-3.10467 1.731785,-5.15538 2.741454,-5.15538 0.796729,0 1.010256,0.49926 0.867471,2.02831 l -0.129453,1.38629 1.123602,-1.1694 c 0.617982,-0.64317 1.364819,-1.22994 1.659639,-1.30393 0.735744,-0.18466 1.41783,0.22192 1.41783,0.84515 0,0.27928 0.02625,1.74241 0.05834,3.2514 l 0.05834,2.74363 -0.604659,0.25046 c -1.307648,0.54164 -2.459953,-0.63616 -2.46063,-2.51507 -1.99e-4,-0.55079 -0.08306,-0.85652 -0.210757,-0.7776 -0.115736,0.0715 -0.878754,0.93021 -1.695596,1.90818 -1.516399,1.81553 -1.981224,2.07357 -2.607349,1.44744 z M 2.4029931,29.47204 C 1.7738286,29.24205 1.1428557,28.48556 1.0159455,27.80907 0.82457802,26.78899 1.2887692,24.37626 2.2373084,21.46078 c 0.9829038,-3.0211 1.3305163,-3.54641 2.4746649,-3.73971 1.8038398,-0.30476 2.037951,0.19096 1.174075,2.48607 -0.8054037,2.13976 -1.6435061,5.65022 -1.4057273,5.888 0.2528796,0.25288 1.7285232,-1.70875 3.3285194,-4.42474 1.2058221,-2.04687 1.6332251,-2.43874 2.5426136,-2.33123 l 0.555265,0.0657 0.05118,4.00214 c 0.02815,2.20118 0.08165,4.37991 0.118894,4.84163 0.06511,0.80717 0.03651,0.84979 -0.743162,1.10729 C 8.8502803,29.84582 7.8313287,28.87737 7.5146087,26.67661 L 7.3521658,25.54787 6.4292902,26.97489 C 5.1513445,28.95095 3.603516,29.91095 2.4029931,29.47209 Z M 29.263839,28.8309 c -0.540297,-0.53993 -0.572995,-0.67222 -0.48156,-1.94841 0.111122,-1.55102 0.644571,-2.76078 1.763521,-3.99932 1.255309,-1.38948 3.208193,-2.05925 4.300214,-1.47481 0.572668,0.30648 0.844449,1.48044 0.582056,2.51419 -0.371109,1.46206 -2.81328,3.72234 -3.537964,3.27446 -0.114569,-0.0708 -0.208307,-0.0385 -0.208307,0.0718 0,0.60814 1.205674,0.40504 2.324396,-0.39156 1.215734,-0.86568 1.854726,-0.30941 0.843293,0.73412 -1.015417,1.04764 -2.657313,1.79879 -3.931885,1.79879 -0.890805,0 -1.173029,-0.0988 -1.653764,-0.57925 z m 3.341386,-3.20468 c 0.629568,-1.15672 0.990957,-3.16715 0.569319,-3.16715 -0.312175,0 -1.405029,2.35651 -1.587392,3.42288 -0.198133,1.1586 0.319002,1.0287 1.018073,-0.25573 z m 4.228251,3.30305 c -1.674686,-1.44051 -0.03931,-5.83185 2.675672,-7.18478 1.409785,-0.70253 2.349831,-0.71253 3.030127,-0.0322 0.615624,0.61562 0.686641,1.69414 0.178161,2.70568 -0.504565,1.00375 -1.964876,2.42749 -2.758496,2.68941 -0.38391,0.1267 -0.639413,0.32519 -0.567781,0.4411 0.183094,0.29625 1.027627,0.0446 1.991856,-0.59348 1.478527,-0.97844 2.036168,-0.14085 0.641585,0.96368 -1.901138,1.50573 -4.114553,1.93664 -5.191124,1.01061 z m 3.326538,-3.51569 c 0.564997,-1.10638 0.810591,-2.95451 0.392618,-2.95451 -0.362808,0 -1.498472,2.82706 -1.498472,3.73022 0,0.80883 0.462264,0.48457 1.105854,-0.77571 z M 20.201979,19.61477 C 16.225167,18.8633 12.171076,16.61643 8.2401627,12.98524 6.6929236,11.55598 6.1010666,10.65757 6.2979887,10.03712 6.4907439,9.42981 10.128952,6.05576 11.926598,4.8172 c 3.775819,-2.60151 7.36842,-3.8433 11.119006,-3.8433 3.763877,0 7.003684,1.11128 10.943375,3.75364 1.937233,1.29932 5.597697,4.65882 5.812054,5.3342 0.286429,0.90246 -1.858916,3.15891 -5.449774,5.73201 -4.776334,3.42258 -9.502927,4.699 -14.14928,3.82102 z M 26.049094,17.018 c 1.380622,-0.61077 2.911579,-2.1047 3.646123,-3.55794 0.543615,-1.07549 0.615261,-1.43737 0.616279,-3.11272 0.0011,-1.6216 -0.08121,-2.07151 -0.568375,-3.11112 -1.252765,-2.67341 -3.750108,-4.24953 -6.697517,-4.22693 -2.486716,0.0191 -4.336253,0.94102 -5.854009,2.9181 -0.996359,1.29789 -1.370495,2.49298 -1.383707,4.41995 -0.02171,3.16607 1.558381,5.46494 4.653219,6.76996 1.032282,0.43529 1.469165,0.49981 2.900455,0.42832 1.099127,-0.0549 2.033696,-0.23837 2.687532,-0.52762 z M 21.771357,15.64477 C 18.500795,14.75453 16.832672,11.63549 17.920169,8.44386 18.601187,6.44518 20.941733,4.7654 23.045604,4.7654 c 1.976566,0 4.109978,1.39839 4.98101,3.26491 1.930305,4.13641 -1.900641,8.79978 -6.255257,7.61446 z m 2.279431,-5.35009 -0.05731,-3.94948 -0.947875,0 -0.947875,0 -0.05731,3.94948 -0.05731,3.94947 1.06249,0 1.06249,0 -0.05731,-3.94947 z" />
</svg>
