<?xml version="1.0" encoding="UTF-8" standalone="no"?>
<svg xmlns:svg="http://www.w3.org/2000/svg" xmlns="http://www.w3.org/2000/svg" version="1.1" width="220" height="32" viewBox="0 0 220 32">
  <path fill="#bebebe" d="m 217.27156,23.31 c 0.68,0 1.24,-0.48 1.24,-1.34 0,-0.82 -0.66,-1.28 -1.28,-1.28 -0.54,0 -1.24,0.32 -1.24,1.3 0,0.82 0.62,1.32 1.28,1.32 z m 0,-4.7 c 0.24,0.02 0.4,-0.72 0.64,-2.22 0.32,-2.02 0.9,-7.2999998 0.9,-10.1199998 0,-1.52 -0.28,-2.62 -1.56,-2.62 -0.94,0 -1.32,0.7 -1.32,1.68 0,1.06 0.38,2.76 0.7,5.1199998 0.28,2.14 0.42,3.98 0.46,6.02 0.02,1.28 -0.06,2.1 0.18,2.14 z m -3.05187,-1.2 c -0.14,-0.24 -0.32,-0.36 -0.44,-0.36 -0.12,0 -0.18,0.08 -0.18,0.2 0,0.1 0.06,0.28 0.14,0.48 0.12,0.32 0.16,0.7 0.16,1.04 0,1.14 -0.62,2.16 -2,2.16 -1.98,0 -2.92,-1.86 -3.02,-3.9 0.34,0.12 1,0.22 1.64,0.22 1.34,0 4.08,-0.64 4.08,-3.5 0,-2.18 -1.78,-2.84 -3.16,-2.84 -2.1,0 -4.9,1.8 -4.9,5.82 0,2.96 1.7,5.08 4.68,5.08 2.06,0 3.36,-1.12 3.36,-3.02 0,-0.52 -0.18,-1.08 -0.36,-1.38 z m -5.38,-1.02 c 0,-3.82 1.44,-4.88 2.44,-4.88 0.78,0 1.54,0.5 1.54,2.1 0,1.78 -1.08,2.96 -2.6,2.96 -0.66,0 -1.04,-0.08 -1.38,-0.18 z m -4.26719,-5.66 c -1.48,0 -2.16,0.9 -2.68,1.74 -0.18,0.3 -0.38,0.36 -0.7,0.36 -0.32,0 -1.04,-0.16 -1.7,-0.16 -2.18,0 -3.92,1.36 -3.92,3.68 0,1.88 1.14,2.94 2.62,3.34 -1,0.24 -1.58,0.7 -1.58,1.34 0,0.96 1.04,1.34 1.94,1.44 -0.82,0.32 -3.92,1.5 -3.92,4.34 0,2.32 2,3.42 4.5,3.42 1.34,0 2.6,-0.26 3.64,-0.74 1.6,-0.72 2.82,-2.02 2.82,-3.7 0,-2.16 -1.68,-2.92 -3.48,-3.28 -1.62,-0.32 -4.16,-0.28 -4.16,-1.48 0,-0.62 0.58,-1.02 1.42,-1.16 l 0.38,0 c 2,0 4.26,-0.72 4.26,-3.82 0,-0.94 -0.4,-1.62 -0.82,-2.08 -0.48,-0.54 -1,-0.78 -1,-1 0,-0.18 0.1,-0.44 0.22,-0.66 0.28,-0.5 0.78,-0.82 1.22,-0.82 0.34,0 0.64,0.14 0.64,0.58 0,0.32 -0.16,0.64 -0.16,1.06 0,0.76 0.54,1.2 1.24,1.2 0.84,0 1.38,-0.6 1.38,-1.66 0,-1.06 -0.84,-1.94 -2.16,-1.94 z m -4.4,2.52 c 1.1,0 1.8,0.96 1.8,2.8 0,2.78 -1.32,3.36 -2.04,3.36 -0.84,0 -1.8,-0.84 -1.8,-2.84 0,-2.46 1.06,-3.32 2.04,-3.32 z m -3.06,12.94 c 0,-1.82 1.32,-3 2.24,-3.56 0.46,0.04 1.02,0.12 1.64,0.28 1.88,0.5 2.68,1.78 2.68,3.42 0,1.68 -1.02,3.28 -3.36,3.28 -2.06,0 -3.2,-1.52 -3.2,-3.42 z m -9.78687,-10.64 c 0.62,0 1.12,-0.42 1.12,-1.06 0,-1.44 -1.82,-1.26 -1.82,-2.4 0,-0.7 0.54,-1.5 1.56,-1.5 0.94,0 1.56,0.64 1.76,1.64 0.2,0.88 0.3,2.08 0.42,3.02 0.06,0.56 0.1,1.12 0.14,1.68 -0.18,-0.04 -0.84,-0.18 -1.58,-0.18 -3.18,0 -4.32,1.84 -4.32,3.46 0,1.52 0.86,2.76 2.92,2.76 1.88,0 3.08,-1.44 3.48,-2.1 0.12,0.78 0.28,1.66 0.64,2.36 0.26,0.54 0.82,1.36 2.04,1.36 0.72,0 1.3,-0.38 1.54,-0.94 0.24,-0.54 0.3,-1.14 0.3,-1.6 0,-0.2 -0.04,-0.96 -0.32,-0.96 -0.16,0 -0.2,0.16 -0.2,0.36 0,0.18 0.02,0.46 0.02,0.7 0,0.42 -0.14,0.82 -0.54,0.82 -0.66,0 -0.86,-0.98 -1.02,-1.78 -0.16,-0.68 -0.98,-6.2 -1.24,-7.32 -0.36,-1.52 -1.02,-3.74 -3.66,-3.74 -2.1,0 -2.98,1.6 -2.98,3.22 0,1.48 0.78,2.2 1.74,2.2 z m 3.26,1.98 c 0.02,0.14 0.1,0.8 0.18,1.4 l 0.12,1.2 c -0.14,0.18 -1.2,1.18 -2.56,1.18 -0.82,0 -1.84,-0.36 -1.84,-1.74 0,-1.52 1.04,-2.3 2.42,-2.3 0.7,0 1.5,0.18 1.68,0.26 z m -19.69969,2.1 c 0,0.08 0.04,0.24 0.6,0.24 0.72,0 1.2,-0.1 1.9,-0.1 0.68,0 1.72,0.22 2.14,0.22 0.36,0 0.48,-0.08 0.48,-0.18 0,-0.3 -0.74,-0.14 -1.26,-0.54 -0.4,-0.3 -0.5,-1.04 -0.5,-1.94 0,-1.18 0.16,-1.9 0.24,-2.16 0.16,-0.52 0.56,-1.08 1.14,-1.08 1.02,0 1.08,1.28 1.08,2.04 0,1.06 -0.1,2 -0.68,2.24 -0.28,0.12 -0.58,0.06 -0.58,0.24 0,0.12 0.2,0.18 0.52,0.18 0.36,0 0.54,-0.04 0.86,-0.04 0.86,0 1.76,0.34 2.22,0.34 0.2,0 0.3,-0.06 0.3,-0.2 0,-0.1 -0.1,-0.18 -0.22,-0.22 -0.44,-0.2 -0.72,-0.66 -0.72,-1.42 0,-0.78 0.1,-1.66 0.34,-2.22 0.16,-0.36 0.48,-0.88 1.16,-0.88 1.02,0 1.1,1.28 1.1,2.02 0,0.7 -0.12,1.54 -0.26,1.94 -0.12,0.4 -0.36,0.64 -0.64,0.72 -0.22,0.06 -0.34,0.12 -0.34,0.26 0,0.34 0.72,0.28 1.78,0.8 0.68,0.32 1.68,1.14 2.14,1.14 0.18,0 0.3,-0.08 0.3,-0.2 0,-0.34 -0.66,-0.32 -0.98,-1.02 -0.14,-0.3 -0.2,-0.68 -0.2,-1.08 0,-0.8 0.2,-2.06 0.2,-3.12 0,-1.3 -0.38,-2.62 -2.06,-2.62 -1.16,0 -1.94,0.68 -2.44,1.58 -0.18,-0.74 -0.76,-1.56 -1.94,-1.56 -1.32,0 -2.14,1.24 -2.34,1.7 -0.1,-1.12 -0.26,-2.72 -0.48,-2.72 -0.16,0 -0.38,0.48 -1.5,0.94 -1.16,0.5 -1.82,0.32 -1.82,0.68 0,0.12 0.1,0.22 0.34,0.22 0.12,0 0.28,-0.02 0.46,-0.02 0.6,0 0.84,0.3 0.98,0.74 0.24,0.76 0.5,2.4 0.5,3.68 0,0.62 -0.34,0.9 -0.66,0.98 -0.5,0.12 -1.16,0.08 -1.16,0.42 z m 0.81719,-13.9599998 c -1.42,0 -3.3,0.4 -4.88,0.4 -1.48,0 -3.1,-0.18 -3.82,-0.18 -0.54,0 -0.6,0.18 -0.6,0.32 0,0.14 0.12,0.28 0.42,0.28 0.66,0 1.38,0.12 1.78,0.38 0.48,0.3 0.9,0.72 0.94,2.66 0.04,1.3199998 0.06,3.7799998 0.06,6.2199998 0,3.02 -0.04,6 -0.1,7.04 -0.08,0.92 -0.26,1.54 -1.04,2 -0.5,0.3 -2.28,0.88 -2.48,0.96 -0.16,0.06 -0.24,0.16 -0.24,0.26 0,0.14 0.1,0.22 0.26,0.22 0.64,0 2.34,-0.92 4.02,-1.16 0.86,-0.12 1.56,-0.16 2.12,-0.16 0.4,0 0.74,0.02 1,0.02 0.5,0 0.6,-0.16 0.6,-0.32 0,-0.18 -0.16,-0.26 -0.48,-0.26 -0.32,0 -0.86,0 -1.22,-0.1 -0.32,-0.08 -0.9,-0.2 -0.9,-1.66 0,-3.82 0.66,-11.16 1.18,-13.6399998 0.3,-1.52 0.88,-2.16 1.76,-2.4 0.5,-0.14 1.04,-0.16 1.7,-0.16 0.64,0 0.9,-0.14 0.9,-0.36 0,-0.18 -0.1,-0.36 -0.98,-0.36 z M 149.10109,12.01 c -0.18,0.06 -0.26,0.16 -0.26,0.26 0,0.14 0.12,0.2 0.36,0.2 0.54,0 1.24,-0.06 1.5,-0.06 0.22,0 0.36,0.02 0.36,0.26 0,0.66 -0.94,3 -0.94,5.62 0,1.12 0.26,2.26 0.82,3.12 0.62,0.92 1.7,1.5 3,1.5 2.3,0 3.2,-1.68 3.2,-3.2 0,-0.9 -0.52,-1.26 -1.02,-1.26 -0.58,0 -0.94,0.4 -0.94,0.92 0,0.82 0.92,0.94 0.92,1.66 0,0.58 -0.4,1.24 -1.44,1.24 -1.34,0 -2.34,-1.2 -2.34,-3.98 0,-1.98 0.62,-4.42 1.06,-5.32 0.14,-0.28 0.36,-0.58 0.72,-0.76 0.52,-0.26 1.26,-0.3 1.62,-0.3 0.24,0 0.4,-0.08 0.4,-0.26 0,-0.18 -0.14,-0.26 -0.42,-0.26 -0.48,0 -1.08,0.12 -1.4,0.12 -0.26,0 -0.32,-0.2 -0.32,-0.4 0,-0.88 0.58,-2.5399998 0.58,-3.2399998 0,-0.36 -0.1,-0.6 -0.4,-0.6 -0.32,0 -0.58,0.3 -0.84,1.1 -0.6,1.8399998 -1.08,2.8999998 -2.92,3.3399998 -0.46,0.1 -1,0.2 -1.3,0.3 z m -7.32234,3.54 c 0.62,0 1.12,-0.42 1.12,-1.06 0,-1.44 -1.82,-1.26 -1.82,-2.4 0,-0.7 0.54,-1.5 1.56,-1.5 0.94,0 1.56,0.64 1.76,1.64 0.2,0.88 0.3,2.08 0.42,3.02 0.06,0.56 0.1,1.12 0.14,1.68 -0.18,-0.04 -0.84,-0.18 -1.58,-0.18 -3.18,0 -4.32,1.84 -4.32,3.46 0,1.52 0.86,2.76 2.92,2.76 1.88,0 3.08,-1.44 3.48,-2.1 0.12,0.78 0.28,1.66 0.64,2.36 0.26,0.54 0.82,1.36 2.04,1.36 0.72,0 1.3,-0.38 1.54,-0.94 0.24,-0.54 0.3,-1.14 0.3,-1.6 0,-0.2 -0.04,-0.96 -0.32,-0.96 -0.16,0 -0.2,0.16 -0.2,0.36 0,0.18 0.02,0.46 0.02,0.7 0,0.42 -0.14,0.82 -0.54,0.82 -0.66,0 -0.86,-0.98 -1.02,-1.78 -0.16,-0.68 -0.98,-6.2 -1.24,-7.32 -0.36,-1.52 -1.02,-3.74 -3.66,-3.74 -2.1,0 -2.98,1.6 -2.98,3.22 0,1.48 0.78,2.2 1.74,2.2 z m 3.26,1.98 c 0.02,0.14 0.1,0.8 0.18,1.4 l 0.12,1.2 c -0.14,0.18 -1.2,1.18 -2.56,1.18 -0.82,0 -1.84,-0.36 -1.84,-1.74 0,-1.52 1.04,-2.3 2.42,-2.3 0.7,0 1.5,0.18 1.68,0.26 z M 131.89109,1.1900002 c -0.38,0 -0.62,0.82 -1.9,1.56 -1.12,0.64 -1.94,0.82 -2.56,1.02 -0.22,0.08 -0.32,0.16 -0.32,0.32 0,0.16 0.08,0.24 0.28,0.24 0.46,0 1.12,-0.22 1.58,-0.22 0.48,0 1.08,0.16 1.08,1.7 0,2.08 -0.74,12.2599998 -1.06,14.0799998 -0.24,1.42 -0.64,1.8 -1.56,1.8 -0.16,0 -0.32,-0.02 -0.44,-0.02 -0.18,0 -0.3,0.08 -0.3,0.24 0,0.18 0.14,0.26 0.42,0.26 0.4,0 0.96,-0.1 1.68,-0.1 1.08,0 2.44,0.42 3.16,0.42 0.22,0 0.34,-0.08 0.34,-0.22 0,-0.16 -0.12,-0.2 -0.3,-0.24 -0.7,-0.16 -1.14,-0.3 -1.14,-1.16 0,-1.82 0.42,-4.38 0.94,-5.5 0.28,-0.64 0.76,-1.32 1.56,-1.32 0.84,0 1.28,0.68 1.44,1.78 0.08,0.5 0.1,1.3 0.1,2.16 0,1.02 -0.04,2.14 -0.12,2.8 -0.08,0.6 -0.28,0.82 -0.48,0.94 -0.16,0.1 -0.36,0.18 -0.62,0.26 -0.22,0.08 -0.28,0.12 -0.28,0.22 0,0.06 0.02,0.16 0.22,0.16 0.48,0 1.74,-0.5 2.74,-0.5 0.78,0 1.38,0.18 1.9,0.18 0.38,0 0.5,-0.14 0.5,-0.28 0,-0.28 -0.32,-0.28 -0.58,-0.3 -0.68,-0.04 -1.14,-0.12 -1.14,-1.28 0,-0.9 0.04,-1.78 0.04,-2.48 0,-0.94 -0.04,-1.72 -0.24,-2.56 -0.46,-1.74 -1.74,-2.16 -2.7,-2.16 -1.62,0 -2.64,1.36 -3.06,2.58 0.04,-1.48 0.18,-6.3399998 0.62,-10.8599998 0.2,-2.12 0.42,-2.92 0.42,-3.28 0,-0.1 -0.04,-0.24 -0.22,-0.24 z m -16.40828,3.96 c -0.54,0 -0.66,0.32 -0.66,0.84 0,0.58 0.14,1.56 0.42,2.66 0.36,1.32 0.98,3.7399998 1.5,3.7399998 0.12,0 0.14,-0.12 0.14,-0.18 0,-0.18 -0.1,-0.44 -0.18,-0.78 -0.2,-0.72 -0.46,-1.9199998 -0.46,-2.9399998 0,-1.4 0.12,-2.14 2.82,-2.14 0.98,0 1.28,0 2.5,0.02 L 120.90281,19.55 c -0.08,1.78 -0.3,2.88 -1.6,4.1 -0.9,0.84 -1.76,1.28 -1.76,1.56 0,0.08 0.04,0.12 0.12,0.12 0.18,0 0.52,-0.18 0.82,-0.36 1.9,-1.1 3.58,-1.64 5.56,-1.64 0.66,0 1.28,0.04 1.94,0.04 0.86,0 1.02,-0.2 1.02,-0.38 0,-0.22 -0.32,-0.24 -0.84,-0.26 -0.48,-0.04 -1.24,-0.08 -1.62,-0.24 -0.56,-0.24 -1.3,-0.74 -1.3,-3.5 l 0,-12.5999998 c 0.76,0 1.52,0 2.08,0.12 1.34,0.24 1.78,1.02 1.86,2.56 0.08,1.0399998 0.1,1.5999998 0.26,1.5999998 0.4,0.04 0.76,-3.2199998 0.76,-4.4999998 0,-0.46 -0.12,-0.74 -0.7,-0.74 -1.04,0 -1.9,0.44 -4.66,0.44 -2.18,0 -3.5,-0.14 -4.98,-0.34 -0.92,-0.1 -1.82,-0.38 -2.38,-0.38 z m -7.9989,-2.38 c -0.18,0 -0.58,0.54 -1.76,1.24 -1.22,0.72 -1.74,0.8 -2.06,0.96 -0.24,0.12 -0.36,0.2 -0.36,0.36 0,0.16 0.12,0.18 0.24,0.18 0.4,0 1.02,-0.4 1.42,-0.4 0.3,0 0.32,0.38 0.36,0.78 0,0.24 0.22,4.7199998 0.22,8.4599998 -0.5,-0.2 -1.28,-0.44 -2.5,-0.44 -2.32,0 -4.260004,1.44 -4.260004,3.9 0,2.78 1.900004,3.88 4.240004,3.88 1.68,0 2.56,-0.24 3.56,-0.24 1.02,0 1.82,0.1 2.26,0.1 0.32,0 0.66,-0.02 0.66,-0.22 0,-0.28 -0.6,-0.14 -1.26,-0.38 -0.5,-0.18 -0.94,-0.46 -0.94,-1.72 0,-1.1 0.08,-4.68 0.16,-8.46 0.08,-2.6799998 0.14,-5.4599998 0.14,-7.4799998 0,-0.32 -0.02,-0.52 -0.12,-0.52 z M 105.62391,18.93 c 0,0.66 -0.06,1.16 -0.32,1.52 -0.26,0.36 -0.74,0.64 -1.5,0.64 -1.76,0 -2.64,-1.34 -2.64,-3.36 0,-1.9 0.94,-3.14 2.68,-3.14 0.72,0 1.32,0.16 1.72,0.36 0.04,1.24 0.06,2.84 0.06,3.98 z M 91.505313,15.55 c 0.62,0 1.12,-0.42 1.12,-1.06 0,-1.44 -1.82,-1.26 -1.82,-2.4 0,-0.7 0.54,-1.5 1.56,-1.5 0.94,0 1.56,0.64 1.76,1.64 0.2,0.88 0.3,2.08 0.42,3.02 0.06,0.56 0.1,1.12 0.14,1.68 -0.18,-0.04 -0.84,-0.18 -1.58,-0.18 -3.18,0 -4.32,1.84 -4.32,3.46 0,1.52 0.86,2.76 2.92,2.76 1.88,0 3.08,-1.44 3.48,-2.1 0.12,0.78 0.28,1.66 0.64,2.36 0.26,0.54 0.82,1.36 2.04,1.36 0.72,0 1.3,-0.38 1.54,-0.94 0.24,-0.54 0.3,-1.14 0.3,-1.6 0,-0.2 -0.04,-0.96 -0.32,-0.96 -0.16,0 -0.2,0.16 -0.2,0.36 0,0.18 0.02,0.46 0.02,0.7 0,0.42 -0.14,0.82 -0.54,0.82 -0.66,0 -0.86,-0.98 -1.02,-1.78 -0.16,-0.68 -0.98,-6.2 -1.24,-7.32 -0.36,-1.52 -1.02,-3.74 -3.66,-3.74 -2.1,0 -2.98,1.6 -2.98,3.22 0,1.48 0.78,2.2 1.74,2.2 z m 3.26,1.98 c 0.02,0.14 0.1,0.8 0.18,1.4 l 0.12,1.2 c -0.14,0.18 -1.2,1.18 -2.56,1.18 -0.82,0 -1.84,-0.36 -1.84,-1.74 0,-1.52 1.04,-2.3 2.42,-2.3 0.7,0 1.5,0.18 1.68,0.26 z M 78.807656,16.59 c 0,2.9 2.28,4.58 4.74,4.58 2.06,0 4.5,-1.38 4.5,-4.74 0,-2.84 -1.9,-4.62 -4.46,-4.62 -2.88,0 -4.78,1.86 -4.78,4.78 z m 4.64,-4.4 c 1.48,0 2.6,1.7 2.6,5.3 0,1.46 -0.5,3.04 -2.1,3.04 -1.84,0 -2.64,-2.58 -2.64,-4.88 0,-1.86 0.64,-3.46 2.14,-3.46 z M 75.969375,4.3300002 c 0,-0.16 -0.02,-0.34 -0.12,-0.34 -0.1,0 -0.16,0.12 -0.3,0.32 -0.32,0.48 -1.24,1.76 -2.64,2.72 -1.32,0.92 -1.82,1.02 -2.06,1.2 -0.12,0.1 -0.2,0.2 -0.2,0.32 0,0.18 0.14,0.24 0.28,0.24 0.42,0 1.52,-0.68 2.12,-0.68 0.38,0 0.54,0.26 0.62,0.72 0.16,0.94 0.3,2.3599998 0.42,3.5599998 0.16,1.62 0.7,7.36 0.7,8.3 0,0.36 -0.06,0.8 -0.5,0.96 -0.28,0.1 -0.76,0.14 -1.1,0.14 -0.26,0 -0.38,0.08 -0.38,0.26 0,0.24 0.22,0.28 0.4,0.28 0.52,0 1.66,-0.18 2.52,-0.18 1.08,0 2.36,0.14 2.6,0.14 0.24,0 0.32,-0.1 0.32,-0.22 0,-0.1 -0.04,-0.18 -0.26,-0.24 -1.2,-0.32 -1.68,-0.44 -1.78,-1.96 -0.12,-1.64 -0.52,-8.38 -0.6,-11.6599998 -0.06,-1.56 -0.04,-3.6 -0.04,-3.88 z M 66.669688,12.39 c 0,-0.18 -0.02,-0.34 -0.14,-0.34 -0.2,0 -0.38,0.5 -1.32,1.36 -0.7,0.66 -1.46,0.86 -1.88,1.1 -0.32,0.16 -0.36,0.26 -0.36,0.34 0,0.1 0.06,0.16 0.16,0.16 0.24,0 0.78,-0.36 1.16,-0.36 0.5,0 0.66,0.44 0.66,2.1 0,2.24 -0.16,9.38 -0.26,10.7 -0.06,0.84 -0.12,1.8 -0.76,2.24 -0.6,0.38 -1.16,0.26 -1.16,0.48 0,0.1 0.16,0.18 0.74,0.18 0.42,0 0.76,-0.06 1.34,-0.06 1.08,0 3.12,0.52 3.82,0.52 0.22,0 0.3,-0.1 0.3,-0.24 0,-0.2 -0.36,-0.38 -0.76,-0.56 -0.32,-0.14 -0.68,-0.36 -0.9,-0.76 -0.46,-0.82 -0.5,-3.64 -0.5,-5.38 0,-1.1 -0.02,-1.58 0.02,-2.64 0.36,0.22 0.96,0.52 1.7,0.52 2.1,0 3.82,-1.88 3.82,-4.92 0,-2.02 -1.06,-3.44 -2.94,-3.44 -0.84,0 -1.56,0.4 -2.02,0.78 -0.28,0.22 -0.52,0.48 -0.72,0.76 0,-0.78 -0.02,-0.76 -0.02,-1.38 0,-0.54 0.02,-0.96 0.02,-1.16 z m 1.8,1.96 c 1.28,0 1.78,1.24 1.78,2.96 0,2.82 -0.96,3.84 -2.02,3.84 -1.36,0 -1.7,-1.54 -1.7,-2.92 0,-1.32 0.26,-3.88 1.94,-3.88 z M 58.171563,6.8300002 c -0.48,0 -1.7,0.78 -4.24,1.4 -1.4,0.34 -2.58,0.44 -3.72,0.62 -0.22,0.04 -0.32,0.14 -0.32,0.28 0,0.18 0.12,0.28 0.38,0.28 0.6,0 0.94,0.08 1.3,0.3 0.64,0.3799998 0.78,1.3799998 0.82,3.0399998 0.02,1.88 0.14,3.94 0.58,5.26 0.72,2.2 2.3,3.74 4.74,3.74 3.78,0 4.26,-4.44 4.34,-6.02 0.1,-1.78 -0.08,-4.02 0.46,-4.9 0.38,-0.68 1.28,-0.68 1.9,-0.72 0.3,-0.02 0.5,-0.06 0.5,-0.2199998 0,-0.14 -0.12,-0.22 -0.58,-0.22 -0.72,0 -1.9,0.3 -3.04,0.3 -1.26,0 -2.3,-0.24 -3.06,-0.24 -0.4,0 -0.64,0.08 -0.64,0.3199998 0,0.28 0.28,0.36 0.84,0.44 1.36,0.22 1.96,0.52 2.36,1.08 0.6,0.84 0.6,3.54 0.6,4.38 0,2.1 -0.94,4.64 -3.08,4.64 -2.52,0 -3.16,-3.5 -3.16,-7.02 0,-2.14 0.34,-3.9799998 1.02,-4.7999998 0.52,-0.66 1.18,-0.98 1.66,-1.2 0.44,-0.2 0.6,-0.34 0.6,-0.54 0,-0.14 -0.1,-0.2 -0.26,-0.2 z M 40.6925,10.07 c -1.6,0 -3.26,0.92 -3.26,2.96 0,2.74 4.9,5.16 4.9,8.24 0,1.6 -0.9,2.7 -2.3,2.7 -1.78,0 -2.42,-1.62 -2.42,-2.48 0,-1.48 0.68,-2.32 0.68,-2.72 0,-0.14 -0.04,-0.28 -0.24,-0.28 -0.38,0 -0.58,1 -1.46,2.22 -0.94,1.3 -1.74,1.94 -1.9,2.1 -0.1,0.1 -0.14,0.18 -0.14,0.26 0,0.08 0.06,0.18 0.2,0.18 0.32,0 0.98,-0.8 1.46,-0.8 0.44,0 0.76,0.32 1.3,0.92 0.58,0.64 1.66,1.32 3.12,1.32 2.1,0 3.88,-1.48 3.88,-4.16 0,-4.02 -5.42,-5.78 -5.42,-8.46 0,-1.02 0.78,-1.62 1.64,-1.62 0.98,0 1.72,0.48 1.72,2.02 l 0,0.76 c 0,0.2 0.04,0.4 0.2,0.4 0.12,0 0.22,-0.14 0.26,-0.38 0.08,-0.46 0.06,-0.84 0.22,-1.8 0.18,-1.18 0.34,-1.4799998 0.34,-1.7799998 0,-0.12 -0.04,-0.28 -0.24,-0.28 -0.12,0 -0.22,0.12 -0.3,0.34 C 42.8125,10.07 42.7125,10.33 42.4925,10.33 c -0.38,0 -0.72,-0.26 -1.8,-0.26 z M 33.076875,6.9900002 c -0.48,0 -0.7,0.34 -0.7,1.12 0,1.16 0.78,5.2199998 1.06,5.2199998 0.24,0 0.38,-4.1799998 0.38,-5.1399998 0,-0.82 -0.24,-1.2 -0.74,-1.2 z M 23.105,12.01 c -0.18,0.06 -0.26,0.16 -0.26,0.26 0,0.14 0.12,0.2 0.36,0.2 0.54,0 1.24,-0.06 1.5,-0.06 0.22,0 0.36,0.02 0.36,0.26 0,0.66 -0.94,3 -0.94,5.62 0,1.12 0.26,2.26 0.82,3.12 0.62,0.92 1.7,1.5 3,1.5 2.3,0 3.2,-1.68 3.2,-3.2 0,-0.9 -0.52,-1.26 -1.02,-1.26 -0.58,0 -0.94,0.4 -0.94,0.92 0,0.82 0.92,0.94 0.92,1.66 0,0.58 -0.4,1.24 -1.44,1.24 -1.34,0 -2.34,-1.2 -2.34,-3.98 0,-1.98 0.62,-4.42 1.06,-5.32 0.14,-0.28 0.36,-0.58 0.72,-0.76 0.52,-0.26 1.26,-0.3 1.62,-0.3 0.24,0 0.4,-0.08 0.4,-0.26 0,-0.18 -0.14,-0.26 -0.42,-0.26 -0.48,0 -1.08,0.12 -1.4,0.12 -0.26,0 -0.32,-0.2 -0.32,-0.4 0,-0.88 0.58,-2.5399998 0.58,-3.2399998 0,-0.36 -0.1,-0.6 -0.4,-0.6 -0.32,0 -0.58,0.3 -0.84,1.1 C 26.725,10.21 26.245,11.27 24.405,11.71 c -0.46,0.1 -1,0.2 -1.3,0.3 z m -1.111875,5.4 c -0.14,-0.24 -0.32,-0.36 -0.44,-0.36 -0.12,0 -0.18,0.08 -0.18,0.2 0,0.1 0.06,0.28 0.14,0.48 0.12,0.32 0.16,0.7 0.16,1.04 0,1.14 -0.62,2.16 -2,2.16 -1.98,0 -2.92,-1.86 -3.02,-3.9 0.34,0.12 1,0.22 1.64,0.22 1.34,0 4.08,-0.64 4.08,-3.5 0,-2.18 -1.78,-2.84 -3.16,-2.84 -2.1,0 -4.9,1.8 -4.9,5.82 0,2.96 1.7,5.08 4.68,5.08 2.06,0 3.36,-1.12 3.36,-3.02 0,-0.52 -0.18,-1.08 -0.36,-1.38 z m -5.38,-1.02 c 0,-3.82 1.44,-4.88 2.44,-4.88 0.78,0 1.54,0.5 1.54,2.1 0,1.78 -1.08,2.96 -2.6,2.96 -0.66,0 -1.04,-0.08 -1.38,-0.18 z M 1.57,7.5100002 c -0.2,0 -0.38,0.04 -0.38,0.28 0,0.2 0.16,0.28 0.84,0.4 0.46,0.08 1.12,0.2 1.48,0.46 0.4,0.28 0.66,0.78 0.74,1.9799998 0.08,1.16 0.14,3.9 0.14,6.26 0,1.06 -0.02,2 -0.06,2.62 -0.08,0.9 -0.24,1.48 -0.86,1.74 -0.52,0.22 -1.32,0.3 -1.46,0.32 -0.2,0.04 -0.38,0.1 -0.38,0.26 0,0.18 0.12,0.26 0.52,0.26 1.16,0 1.88,-0.26 3.7,-0.38 2.24,-0.12 5.58,-0.14 6.88,-0.14 0.74,0 0.94,-0.12 0.94,-0.32 0,-0.4 -0.4,-1.28 -0.88,-2.68 -0.44,-1.28 -0.58,-1.96 -0.9,-2.86 -0.08,-0.2 -0.18,-0.36 -0.34,-0.36 -0.12,0 -0.16,0.12 -0.16,0.26 0,0.5 0.5,1.82 0.5,3.18 0,1.52 -0.68,2.26 -2.9,2.26 -0.74,0 -1.52,-0.08 -1.78,-0.16 -0.44,-0.14 -0.68,-0.44 -0.68,-1.3 0,-1.62 0.46,-7.7 0.8,-9.6799998 0.16,-0.86 0.66,-1 1.16,-1.08 0.3,-0.04 0.64,-0.04 0.88,-0.08 0.32,-0.02 0.5,-0.1 0.5,-0.3 0,-0.2 -0.12,-0.32 -0.74,-0.32 -0.88,0 -1.34,0.1 -2.12,0.1 -0.34,0 -0.74,-0.02 -1.28,-0.06 -2.08,-0.16 -3.2,-0.62 -4.16,-0.66 z" />
</svg>
