<?xml version="1.0" encoding="UTF-8" standalone="no"?>
<svg xmlns:svg="http://www.w3.org/2000/svg" xmlns="http://www.w3.org/2000/svg" version="1.1" width="102" height="32" viewBox="0 0 102 32">
  <path fill="#bebebe" d="m 17.437743,0.55244249 c -0.061,7.3e-4 -0.122599,0.004 -0.185109,0.009 -1.539819,0.12769 -2.563531,1.76800001 -1.968592,3.15452001 0.244469,0.56974 0.963311,1.22468 1.523105,1.38741 0.930444,0.2705 2.008,-0.10891 2.556174,-0.89993 1.105954,-1.5959 -0.03464,-3.67324001 -1.925578,-3.65071001 z m 0.118539,1.01515001 c 0.142366,2.4e-4 0.2865,0.053 0.404523,0.17103 0.249274,0.24927 0.188601,0.95352 -0.104971,1.2192 -0.144194,0.1305 -0.262172,0.34601 -0.262172,0.47903 0,0.13302 -0.06082,0.24195 -0.135182,0.24195 -0.276595,0 -0.274675,-0.401 0.0041,-0.85206 0.176111,-0.28496 0.25234,-0.55313 0.196373,-0.69154 -0.08033,-0.19865 -0.105395,-0.1903 -0.205334,0.0689 -0.1508,0.39108 -0.515383,0.38634 -0.515383,-0.007 0,-0.37616 0.304844,-0.63034 0.618049,-0.62982 z m -0.0827,2.37338 c 0.160183,0 0.250392,0.0677 0.218391,0.16386 -0.08259,0.24804 -0.491572,0.28342 -0.491572,0.0425 0,-0.1216 0.112163,-0.20636 0.273181,-0.20636 z m 3.488881,2.09738 -7.550495,0.009 -7.5504944,0.009 1.0486866,0.3121 c 0.5767781,0.17163 2.7157091,0.78576 4.7531438,1.36463 3.919077,1.11348 4.372754,1.2832 4.67659,1.74892 0.145785,0.22346 1.515936,4.4156095 1.515936,4.6382095 0,0.0249 1.563199,0.0453 3.473776,0.0453 1.910576,0 3.473775,-0.0254 3.473775,-0.0563 0,-0.0309 -0.593745,-1.28444 -1.319307,-2.78559 C 22.758513,9.8224725 21.894341,8.0192225 21.563616,7.3162725 l -0.601152,-1.27809 z m -14.6606228,3.28996 c -0.01603,-5.6e-4 -0.02553,7.5e-4 -0.02791,0.004 -0.01898,0.0268 -0.2881091,0.47563 -0.5980791,0.9974795 -0.3891167,0.6551 -0.8229383,1.15919 -1.4014924,1.6286 -0.4608775,0.37393 -0.8379772,0.71832 -0.8379772,0.76526 0,0.12416 0.5130873,0.57648 1.0996364,0.96933 0.6324589,0.42358 0.8129513,0.42408 2.1872398,0.004 0.8841731,-0.27018 1.2788988,-0.3244 1.9785775,-0.27088 0.9494169,0.0726 1.0266687,0.0212 1.0266687,-0.68411 0,-0.48187 0.3122891,-0.88939 0.9186251,-1.19872 0.588192,-0.30008 1.178748,-1.01193 1.178748,-1.42096 0,-0.2750795 -0.04578,-0.2826495 -1.727926,-0.2826495 -1.3497319,0 -1.95357,-0.0608 -2.7586923,-0.27805 -0.4960434,-0.13384 -0.925204,-0.2296 -1.0374216,-0.23349 z M 28.897511,12.205552 c -0.325518,-0.01 -0.661183,0.0239 -0.79138,0.10651 -0.167742,0.10639 -0.978387,6.51358 -0.852313,6.7366 0.03057,0.0541 0.199602,0.0983 0.37559,0.0983 0.222891,0 0.320034,0.073 0.320034,0.24041 0,0.13218 0.04222,0.28238 0.09371,0.33386 0.05148,0.0515 0.272689,0.076 0.491572,0.0545 0.318696,-0.0312 0.405839,-0.10686 0.43755,-0.37994 0.03334,-0.28712 0.09182,-0.33101 0.370216,-0.27779 0.194399,0.0372 0.380611,0.19451 0.451888,0.38199 0.09958,0.26193 0.197375,0.31154 0.547385,0.27779 0.326613,-0.0315 0.435911,-0.10983 0.468018,-0.33591 0.02993,-0.21075 0.130129,-0.29494 0.35127,-0.29494 0.22114,0 0.321337,0.0842 0.351269,0.29494 0.03433,0.24171 0.124797,0.29495 0.500789,0.29495 l 0.458801,0 0.06554,-0.775 0.06554,-0.77525 0.227352,0.48031 c 0.125004,0.26406 0.307294,0.48005 0.405035,0.48005 0.09774,0 0.246508,0.15145 0.330787,0.33642 0.119299,0.26183 0.232779,0.32715 0.512565,0.29494 0.342748,-0.0395 0.362496,-0.0809 0.425006,-0.89353 0.05076,-0.65989 0.0902,-0.78371 0.175123,-0.54918 0.06031,0.16655 0.371685,0.56473 0.691785,0.88483 0.528239,0.52824 0.640417,0.58195 1.216128,0.58195 0.68635,0 1.325197,-0.36487 1.325197,-0.75682 0,-0.16592 0.03485,-0.17816 0.1572,-0.0558 0.08652,0.0865 0.257218,0.1572 0.379177,0.1572 0.127203,0 0.256721,0.13973 0.303904,0.32772 0.0674,0.26856 0.162159,0.32771 0.524599,0.32771 0.502993,0 0.596217,-0.14632 0.61216,-0.96112 l 0.01075,-0.54637 0.186132,0.42603 c 0.102471,0.23432 0.265145,0.42603 0.361511,0.42603 0.09637,0 0.244204,0.15145 0.328483,0.33642 0.119299,0.26184 0.232779,0.32716 0.512566,0.29495 l 0.359461,-0.0415 0.03533,-2.70186 c 0.02995,-2.28721 0.0048,-2.72729 -0.163857,-2.86726 -0.109579,-0.0909 -0.199189,-0.33506 -0.199189,-0.54252 0,-0.36526 -0.02076,-0.37713 -0.655429,-0.37713 l -0.65543,0 0,0.72097 c 0,0.39654 -0.05334,0.72098 -0.118541,0.72098 -0.0652,0 -0.254108,-0.32716 -0.419883,-0.72712 -0.301149,-0.72658 -0.301882,-0.72718 -0.831832,-0.68821 l -0.530489,0.0389 -0.04096,0.91761 -0.04096,0.9176 -0.249369,-0.52434 c -0.13727,-0.28839 -0.251785,-0.58787 -0.254236,-0.66542 -0.0099,-0.31292 -0.660922,-0.74325 -1.219712,-0.80623 -0.706278,-0.0796 -1.352793,0.21843 -1.569702,0.72405 -0.08357,0.19479 -0.160921,0.37046 -0.17205,0.39018 -0.01113,0.0197 -0.117337,-10e-4 -0.235802,-0.0469 -0.142125,-0.0545 -0.215319,-0.23632 -0.215319,-0.53433 l 0,-0.45163 -0.688201,0.0397 -0.6882,0.0397 -0.06554,0.754 -0.06554,0.75426 -0.327715,-0.78626 c -0.327625,-0.78615 -0.32788,-0.78651 -0.884834,-0.78703 l -0.557115,-5.1e-4 -0.01562,2.91667 -0.01562,2.91667 -0.324387,-2.81836 c -0.211007,-1.83296 -0.388881,-2.89063 -0.508725,-3.02522 -0.101351,-0.11383 -0.18434,-0.32334 -0.18434,-0.46546 0,-0.14213 -0.07069,-0.32928 -0.157201,-0.41579 -0.08903,-0.089 -0.404414,-0.14148 -0.729933,-0.15106 z m 13.143662,0.0594 -0.03482,3.44102 -0.03508,3.44101 0.330019,0 c 0.232504,0 0.329762,0.071 0.329762,0.24041 0,0.13218 0.04223,0.28238 0.09371,0.33386 0.05148,0.0515 0.272689,0.076 0.491572,0.0545 l 0.397867,-0.0389 0.03508,-3.19548 c 0.02938,-2.67206 0.0039,-3.21955 -0.155665,-3.3427 -0.104961,-0.081 -0.209195,-0.32418 -0.231705,-0.54048 -0.03878,-0.37263 -0.07191,-0.39326 -0.630851,-0.39326 l -0.589886,0 z m -13.35386,0.0847 c 0.08304,-0.002 0.170615,4e-5 0.258587,0.006 l 0.639812,0.0407 0.354342,3.14607 c 0.194842,1.73034 0.357446,3.21981 0.36151,3.30993 0.0047,0.1046 -0.179388,0.16386 -0.508982,0.16386 -0.511429,0 -0.517114,-0.006 -0.604736,-0.58989 -0.07642,-0.50963 -0.130928,-0.58989 -0.401194,-0.58989 -0.283372,0 -0.312865,0.0556 -0.312865,0.58989 l 0,0.58989 -0.502582,0 c -0.276373,0 -0.530298,-0.028 -0.564539,-0.0622 -0.107297,-0.1073 0.634032,-6.37367 0.77013,-6.50977 0.05332,-0.0533 0.261397,-0.0891 0.510517,-0.0942 z m 13.484946,0.0463 0.4588,0 0.458801,0 0.03508,3.30993 0.03508,3.30993 -0.528954,0 -0.528952,0 0.03508,-3.30993 0.03508,-3.30993 z m 11.093654,0.73787 c -0.446113,-0.002 -0.897758,0.14893 -1.179262,0.43013 -0.337901,0.33754 -0.346484,0.38878 -0.410666,2.47221 l -0.06554,2.12759 -0.240409,-1.90075 c -0.134035,-1.05998 -0.317115,-1.98773 -0.413997,-2.09738 -0.09555,-0.10815 -0.193793,-0.3441 -0.21839,-0.52435 -0.04196,-0.30747 -0.09852,-0.33008 -0.914017,-0.36612 l -0.869212,-0.0384 -0.07425,0.43167 c -0.04081,0.23741 -0.180545,1.22801 -0.310562,2.20133 l -0.236312,1.76966 -0.03661,-1.67698 c -0.02913,-1.33014 -0.07658,-1.69233 -0.229401,-1.75098 -0.11712,-0.0449 -0.192788,-0.24834 -0.192788,-0.51871 l 0,-0.44472 -0.650309,0 -0.650565,0 -0.143118,0.55712 c -0.07876,0.30641 -0.219677,0.79307 -0.313122,1.08146 l -0.169746,0.52434 -0.09294,-0.41322 c -0.05105,-0.22728 -0.207416,-0.63786 -0.347428,-0.91249 -0.140014,-0.27463 -0.254492,-0.57533 -0.254492,-0.66823 0,-0.11531 -0.208017,-0.16898 -0.655429,-0.16898 l -0.65543,0 0,2.94944 0,2.94944 0.327715,0 c 0.230394,0 0.327715,0.0714 0.327715,0.24041 0,0.13218 0.03924,0.27965 0.08731,0.32772 0.04806,0.0481 0.277907,0.0873 0.510517,0.0873 0.443558,0 0.581949,-0.17075 0.581949,-0.71765 0,-0.3898 0.351662,-0.53732 0.460848,-0.1933 0.05551,0.17488 0.199593,0.25552 0.456498,0.25552 0.289405,0 0.384767,0.0675 0.417068,0.29494 0.03547,0.24973 0.12237,0.29495 0.566332,0.29495 0.443961,0 0.530864,-0.0452 0.566331,-0.29495 0.02993,-0.21075 0.130128,-0.29494 0.35127,-0.29494 0.22114,0 0.321337,0.0842 0.351269,0.29494 0.03433,0.24171 0.124797,0.29495 0.500789,0.29495 0.396616,0 0.464252,-0.0462 0.498483,-0.34103 0.03334,-0.28712 0.09182,-0.33101 0.370216,-0.27779 0.194399,0.0372 0.380611,0.19451 0.451889,0.38199 0.09959,0.26193 0.197374,0.31154 0.547385,0.27779 l 0.426029,-0.041 -0.032,-0.78652 c -0.02188,-0.53884 0.0043,-0.70347 0.0827,-0.52281 0.06296,0.14504 0.385624,0.51372 0.717131,0.81929 0.535439,0.49356 0.673508,0.55558 1.236099,0.55558 0.666931,0 0.90107,-0.12176 1.254022,-0.65184 0.118692,-0.17826 0.21583,-0.252 0.21583,-0.16386 0,0.0881 0.143269,0.16027 0.318498,0.16027 0.230595,0 0.330167,0.0815 0.360486,0.29495 0.03945,0.27779 0.10295,0.29494 1.090675,0.29494 l 1.048687,0 0.04071,-0.49157 c 0.02355,-0.28456 -0.01785,-0.49158 -0.09831,-0.49158 -0.07645,0 -0.139024,-0.16527 -0.139024,-0.36714 0,-0.45422 -0.214353,-0.68155 -0.64237,-0.68155 -0.445432,0 -0.191726,-0.22977 0.314657,-0.28496 0.341653,-0.0372 0.398901,-0.10157 0.436013,-0.4908 0.0291,-0.3052 -0.02314,-0.48477 -0.163857,-0.56352 -0.116027,-0.0649 -0.206614,-0.28708 -0.206614,-0.50668 0,-0.28293 -0.0815,-0.4237 -0.294943,-0.50949 -0.246868,-0.0992 -0.204133,-0.12005 0.262171,-0.12699 l 0.557116,-0.008 0,-0.52435 c 0,-0.28839 -0.05536,-0.52434 -0.122893,-0.52434 -0.06753,0 -0.141265,-0.19172 -0.163857,-0.42603 l -0.04096,-0.42603 -1.278087,-0.0376 -1.278087,-0.0374 0,0.79112 c 0,0.4352 -0.05119,0.79138 -0.113677,0.79138 -0.06249,0 -0.23451,-0.29097 -0.382247,-0.64647 -0.188619,-0.45386 -0.395459,-0.71196 -0.694602,-0.86665 -0.225547,-0.11664 -0.491197,-0.17284 -0.758864,-0.1741 z m -0.165135,0.13493 c 0.743949,-0.0314 1.459098,0.47393 1.459098,1.15341 0,0.30066 -0.08008,0.40122 -0.412715,0.51718 -0.576784,0.20107 -0.613334,0.18905 -0.660037,-0.21558 -0.02502,-0.21674 -0.132519,-0.37649 -0.270877,-0.40273 -0.210016,-0.0398 -0.229401,0.1187 -0.229401,1.87643 0,1.75775 0.01938,1.91631 0.229401,1.87643 0.17285,-0.0328 0.239235,-0.19689 0.26934,-0.66516 0.02403,-0.37371 -0.01517,-0.62138 -0.09831,-0.62138 -0.07605,0 -0.138255,-0.23596 -0.138255,-0.52435 l 0,-0.52434 0.655429,0 0.655429,0 0,1.31675 c 0,1.22332 -0.02291,1.33966 -0.321826,1.63858 -0.257866,0.25786 -0.45499,0.32182 -0.993128,0.32182 -0.567372,0 -0.730807,-0.0595 -1.054576,-0.38327 l -0.383273,-0.38302 0,-1.98294 c 0,-2.21659 0.105333,-2.60548 0.782419,-2.88594 0.166312,-0.0689 0.339606,-0.10463 0.511286,-0.11189 z m -16.977155,0.001 c 0.248167,-0.002 0.49777,0.0496 0.713291,0.16104 0.593339,0.30683 0.711075,0.85502 0.659781,3.07311 -0.04334,1.87421 -0.0447,1.88056 -0.411435,2.19569 -0.524838,0.45099 -1.543734,0.44791 -1.997523,-0.006 -0.315596,-0.3156 -0.321826,-0.36299 -0.321826,-2.48321 0,-2.05309 0.01486,-2.17881 0.295199,-2.50472 0.23953,-0.27847 0.6489,-0.43231 1.062513,-0.43602 z m 2.05052,0.0932 0.481332,0.0407 0.481586,0.0407 0.468786,1.37641 0.469042,1.37641 0.03712,-1.40918 0.03738,-1.40918 0.519735,0 0.519991,0 0,2.82655 0,2.8268 -0.421165,-0.0412 c -0.399284,-0.0389 -0.445375,-0.1024 -0.884829,-1.21843 l -0.463665,-1.17722 -0.06554,1.17722 -0.06554,1.17747 -0.557115,0.0402 -0.557115,0.0404 0,-2.83372 0,-2.83397 z m -4.194747,7.7e-4 0,2.82604 0,2.82578 -0.441391,0 c -0.434963,0 -0.447729,-0.0167 -0.8687,-1.14701 -0.23496,-0.63085 -0.478755,-1.20294 -0.541753,-1.27143 -0.06602,-0.0718 -0.114444,0.41411 -0.114444,1.147 l 0,1.27144 -0.524344,0 -0.524344,0 0,-2.81836 0,-2.81835 0.442415,0 c 0.440098,0 0.444488,0.006 0.86486,1.21254 0.616539,1.76927 0.662713,1.78617 0.625986,0.22941 l -0.03252,-1.37641 0.557115,-0.0402 0.557116,-0.0405 z m 13.764016,0 0,2.82604 0,2.82578 -0.589887,0 -0.589887,0 -0.01178,-1.27809 -0.01203,-1.2781 -0.283422,1.00543 c -0.155937,0.553 -0.31627,1.03801 -0.356134,1.07787 -0.03986,0.0399 -0.187077,-0.38306 -0.327202,-0.93987 l -0.254748,-1.01234 -0.06554,1.17978 -0.06554,1.17977 -0.557115,0.0402 -0.557114,0.0404 0,-2.82603 0,-2.82578 0.521783,0 c 0.461217,0 0.531907,0.0419 0.607296,0.36048 0.349418,1.47673 0.68947,2.55738 0.752975,2.39233 0.04161,-0.10815 0.213588,-0.75702 0.382249,-1.44195 l 0.30672,-1.24532 0.54969,-0.0402 0.549691,-0.0405 z m 1.679281,0.004 c 0.103446,-0.001 0.232259,0.0108 0.396842,0.0108 l 0.753231,0 0.302112,2.38721 c 0.16617,1.31293 0.333778,2.58119 0.372264,2.81835 0.06945,0.42798 0.06593,0.43115 -0.46008,0.43115 -0.516148,0 -0.532286,-0.0137 -0.618562,-0.52434 -0.07473,-0.44233 -0.138043,-0.52435 -0.404779,-0.52435 -0.2815,0 -0.316193,0.0575 -0.316193,0.52435 0,0.52434 0,0.52434 -0.524344,0.52434 -0.639481,0 -0.631871,0.0798 -0.261147,-2.76536 0.340627,-2.61412 0.312392,-2.87585 0.760656,-2.8821 z m 5.923699,0.0108 1.106549,0 c 0.608571,0 1.139276,0.0528 1.17926,0.11752 0.03998,0.0647 0.03603,0.30065 -0.0087,0.52434 -0.07611,0.38054 -0.118344,0.40683 -0.654917,0.40683 l -0.573501,0 0,0.59987 0,0.59988 0.491573,-0.0428 0.491571,-0.0428 0.0402,0.55711 0.04045,0.55712 -0.532025,0 -0.531768,0 0,0.67336 0,0.67309 0.584254,-0.0801 c 0.676968,-0.0928 0.771656,-0.001 0.652869,0.63213 l -0.08654,0.46111 -1.099635,0 -1.099636,0 0,-2.81836 0,-2.81835 z m -26.55769,0.93706 c -0.03137,0.0127 -0.05309,0.17296 -0.05376,0.5159 -6.26e-4,0.31843 -0.03851,0.88857 -0.08398,1.26708 -0.07406,0.61653 -0.05673,0.68818 0.165137,0.6882 0.229708,3e-5 0.24233,-0.0851 0.176147,-1.17465 -0.04904,-0.80728 -0.143657,-1.32077 -0.203542,-1.29653 z m 7.357962,5.2e-4 c -0.01168,6.2e-4 -0.024,0.002 -0.03712,0.005 -0.202052,0.0387 -0.233784,0.24601 -0.266269,1.73945 -0.02028,0.93257 -0.0074,1.77251 0.02867,1.86644 0.03605,0.0939 0.155859,0.17077 0.266269,0.17077 0.171083,0 0.200725,-0.28237 0.200725,-1.91048 0,-1.63946 -0.01711,-1.88048 -0.192277,-1.87105 z m 13.621409,0.52101 c -0.03434,-0.0191 -0.05837,0.10262 -0.05837,0.40197 0,0.25429 -0.03762,0.7362 -0.08347,1.07071 -0.0741,0.54058 -0.05541,0.60806 0.167442,0.60806 0.231771,0 0.244635,-0.0744 0.170258,-0.98366 -0.05256,-0.6426 -0.138618,-1.06532 -0.195861,-1.09708 z m -28.438463,0.11445 c -1.910577,0 -3.473776,0.025 -3.473776,0.0556 0,0.0306 -0.269412,1.2546 -0.598592,2.72004 -0.32918,1.46544 -0.856825,3.81476 -1.172603,5.22066 -0.315779,1.4059 -0.812731,3.61798 -1.104501,4.91574 -0.543434,2.41712 -0.605554,2.81958 -0.434222,2.81682 0.05407,-8.8e-4 0.92178,-1.31338 1.92814,-2.91667 1.006358,-1.6033 2.414428,-3.84687 3.129164,-4.98563 0.714734,-1.13877 1.314611,-2.0531 1.333132,-2.03184 0.01852,0.0213 0.36956,1.24793 0.780115,2.72593 0.410552,1.47799 0.826669,2.95272 0.924514,3.27715 0.09785,0.32444 0.397768,1.40099 0.666438,2.39233 l -2.55e-4,0 c 0.268669,0.99134 0.538311,1.80244 0.599103,1.80244 0.06079,0 0.110971,-0.36868 0.111626,-0.81929 6.32e-4,-0.45061 0.177207,-3.73924 0.392235,-7.30806 0.215027,-3.56883 0.391321,-6.79847 0.391977,-7.17698 l 0.0013,-0.6882 -3.473775,0 z m -20.77711,0.13174 0,0.38789 c 0,0.21334 0.0581598,0.81798 0.12929358,1.34363 0.13405556,0.99061 0.43885552,3.4976 1.25555692,10.32842 0.2629111,2.19898 0.4998093,4.07262 0.5263912,4.16378 0.03789,0.12991 0.919573,0.15827 4.0826087,0.13109 l 4.0342176,-0.0346 0.1083,-0.72097 c 0.297392,-1.9815 1.889908,-15.41585 1.837507,-15.50096 -0.0333,-0.0541 -2.7409802,-0.0983 -6.0171485,-0.0983 l -5.9567265,0 z m 53.395216,0.14005 c 0.07856,-0.005 0.08782,0.0498 0.08782,0.18767 0,0.10924 -0.116521,0.19663 -0.262172,0.19663 -0.312541,0 -0.347688,-0.20124 -0.05479,-0.31364 0.10987,-0.0422 0.182006,-0.0674 0.229145,-0.0707 z m -49.9869832,0.24297 1.1470013,0.0379 1.1470012,0.0379 0.03866,0.88483 0.03892,0.88484 -1.1859171,0 -1.1856612,0 0,-0.92273 0,-0.92272 z m 8.1649592,0 -0.08321,0.69333 c -0.0458,0.38135 -0.08383,0.79655 -0.08449,0.92272 -0.001,0.20149 -0.145213,0.2294 -1.186685,0.2294 l -1.1859176,0 0.03892,-0.88483 0.03866,-0.88483 1.2314906,-0.0379 1.231234,-0.0379 z m -9.5766925,0.0307 c 0.4099976,0.002 0.7236206,0.0293 0.7637285,0.0722 0.05348,0.0572 0.1382655,0.47263 0.1886923,0.92324 l 0.09191,0.81929 -1.1869421,0 -1.1866851,0 -0.06913,-0.42603 c -0.03807,-0.23432 -0.08494,-0.63249 -0.1042026,-0.88483 l -0.03508,-0.45881 1.1019404,-0.0384 c 0.1515305,-0.005 0.299092,-0.007 0.4357586,-0.007 z m 4.2300791,0.0451 1.1797732,0 1.1797721,0 0.04148,0.57939 c 0.02277,0.31866 0.0068,0.71683 -0.03533,0.88484 -0.0732,0.29166 -0.1300756,0.30544 -1.2599089,0.30544 l -1.1833581,0 0.03892,-0.88484 0.03866,-0.88483 z m 48.2692974,0.0829 c 0.131598,-0.002 0.16693,0.10198 0.16693,0.42399 0,0.52301 -0.158677,0.69334 -0.388394,0.41655 -0.216823,-0.26126 -0.117769,-0.78062 0.158994,-0.83337 0.02291,-0.004 0.04367,-0.007 0.06247,-0.007 z m -53.8240612,2.21106 1.1544262,0 1.1544262,0 0.08116,0.49157 c 0.04469,0.27037 0.0819,0.68329 0.0827,0.91761 l 0.0015,0.42603 -1.1083414,0 -1.1083413,0 -0.06426,-0.42603 c -0.03542,-0.23432 -0.09337,-0.64724 -0.1287816,-0.91761 l -0.06452,-0.49157 z m 2.8675036,0 1.1142294,0 1.1142303,0 0,0.9176 0,0.91761 -1.0269246,0 c -0.5647622,0 -1.0661655,-0.0392 -1.1142294,-0.0873 -0.04807,-0.0481 -0.08731,-0.46099 -0.08731,-0.91761 l 0,-0.83029 z m 2.6217174,0 1.1797722,0 1.1797731,0 -0.0015,0.42603 c -7.94e-4,0.23432 -0.03801,0.64724 -0.0827,0.9176 l -0.08116,0.49158 -1.0097707,0 c -0.5553282,0 -1.0490116,-0.0392 -1.0970765,-0.0873 -0.04806,-0.0481 -0.08731,-0.46099 -0.08731,-0.91761 l 0,-0.83029 z m 2.7750769,0 1.1751653,0 1.175164,0 -0.08935,0.81929 c -0.04909,0.45061 -0.114326,0.86353 -0.145166,0.9176 -0.05748,0.10078 -2.0506075,0.14187 -2.1490921,0.0443 -0.03004,-0.0298 -0.03467,-0.44268 -0.0105,-0.9176 l 0.04378,-0.86358 z m -5.8258959,2.21848 0.08193,0.49644 c 0.04514,0.27312 0.08267,0.68841 0.08347,0.92272 l 0.0015,0.42604 -1.0407496,0 -1.0404946,0 -0.08218,-0.62266 c -0.1657425,-1.25604 -0.2550872,-1.14269 0.9329629,-1.1849 l 1.0635365,-0.0376 z m 0.5601872,0.01 1.0486876,0 1.0486865,0 0,0.91761 0,0.9176 -0.9613818,0 c -0.5287133,0 -1.0006218,-0.0392 -1.0486866,-0.0873 -0.04807,-0.0481 -0.08731,-0.46099 -0.08731,-0.9176 l 0,-0.8303 z m 5.1123493,0 1.1221667,0 1.122423,0 -0.08091,0.62266 c -0.0444,0.34247 -0.108097,0.75539 -0.141583,0.91761 -0.05659,0.27415 -0.129983,0.29494 -1.041518,0.29494 l -0.9805837,0 0,-0.9176 0,-0.91761 z m -1.0727535,0.0133 c 0.8089703,-0.0223 0.7520815,0.0753 0.596031,1.21383 l -0.08321,0.60807 -0.9629179,0 c -1.0939554,0 -1.1550192,-0.0676 -1.0748024,-1.19028 l 0.04148,-0.57939 1.0814585,-0.0382 c 0.1531375,-0.005 0.286395,-0.0109 0.4019627,-0.0141 z m -5.1832681,2.21695 c 0.5520202,-0.002 0.6409919,0.0378 0.7537436,0.33437 0.07031,0.18494 0.1277575,0.62735 0.1277575,0.98315 l 0,0.64698 -0.909921,0 c -0.5004253,0 -0.9431439,-0.0539 -0.9839118,-0.11982 -0.04077,-0.066 -0.1106816,-0.47023 -0.1554084,-0.89815 -0.07729,-0.73951 -0.06597,-0.78202 0.2301682,-0.86127 0.1713614,-0.0459 0.5933251,-0.0842 0.9375719,-0.0853 z m 1.2747589,0.12929 0.9890317,0 0.9892888,0 -0.03892,0.88484 -0.03866,0.88483 -0.8576912,0.0382 c -0.4716864,0.021 -0.899355,-0.004 -0.9503718,-0.0545 -0.05102,-0.051 -0.09268,-0.46637 -0.09268,-0.92298 l 0,-0.8303 z m 2.3595452,0 1.0614886,0 1.0617435,0 -0.09345,0.81929 c -0.05133,0.45061 -0.1194676,0.86353 -0.1515675,0.91761 -0.0957,0.1612 -1.5506939,0.11143 -1.7210144,-0.0589 -0.08652,-0.0865 -0.1572005,-0.49944 -0.1572005,-0.91761 l 0,-0.7604 z m 2.4906309,0 1.0404943,0 1.040494,0 -0.06452,0.49158 c -0.03541,0.27036 -0.09336,0.68328 -0.128781,0.9176 l -0.06426,0.42603 -0.911713,0 -0.9117133,0 0,-0.9176 0,-0.91761 z m 52.8416853,1.17978 c -0.463953,0 -0.663418,0.0574 -0.720972,0.20738 -0.04376,0.11404 -0.07962,1.60631 -0.07962,3.31633 0,3.22243 0.03227,3.42386 0.550459,3.42386 0.150868,0 0.236057,0.0974 0.236057,0.27011 0,0.23195 0.06943,0.26434 0.491571,0.2294 l 0.491573,-0.0407 0.03508,-3.18217 c 0.0303,-2.74594 0.0078,-3.19232 -0.163857,-3.25821 -0.123803,-0.0475 -0.198933,-0.24452 -0.198933,-0.52127 l 0,-0.44472 -0.641348,0 z m 16.891641,0 0.0351,3.44101 0.0348,3.44102 0.294939,0.042 c 0.18955,0.0269 0.294949,0.13232 0.294949,0.29494 0,0.20784 0.0937,0.25296 0.524339,0.25296 0.463698,0 0.524348,-0.0358 0.524348,-0.30954 0,-0.25638 0.0543,-0.29912 0.315929,-0.24911 0.173709,0.0332 0.345139,0.1725 0.380969,0.30953 0.0488,0.18652 0.183489,0.24912 0.536128,0.24912 l 0.471088,0 0,-3.14786 c 0,-1.73132 -0.0554,-3.25028 -0.123149,-3.37548 -0.0677,-0.12519 -0.15741,-0.38982 -0.19919,-0.58809 -0.0706,-0.33484 -0.122429,-0.36049 -0.728907,-0.36049 l -0.652868,0 0,0.54048 c 0,0.46549 -0.0273,0.51769 -0.19663,0.37713 -0.108149,-0.0897 -0.196629,-0.33302 -0.196629,-0.54048 0,-0.36542 -0.0204,-0.37713 -0.657478,-0.37713 l -0.657738,0 z m -50.518494,0.0174 c -0.341097,0.003 -0.472631,0.0464 -0.476466,0.14056 -0.0038,0.0934 -0.169229,1.59981 -0.367654,3.34782 -0.368884,3.24964 -0.36128,3.44178 0.13851,3.44178 0.150868,0 0.236056,0.0974 0.236056,0.27011 0,0.23195 0.06943,0.26434 0.491573,0.2294 0.421536,-0.0349 0.497334,-0.09 0.531768,-0.38737 0.03915,-0.3381 0.04979,-0.34208 0.426029,-0.15438 0.212231,0.10587 0.385833,0.27657 0.385833,0.37943 0,0.20469 0.849063,0.27308 0.969574,0.0781 0.121591,-0.19673 -0.571987,-5.9769 -0.76552,-6.3797 -0.103923,-0.21629 -0.20779,-0.51124 -0.230681,-0.65543 -0.0361,-0.22744 -0.158603,-0.26721 -0.925027,-0.30083 -0.163331,-0.007 -0.300297,-0.0106 -0.413995,-0.01 z m 34.137115,0.0986 0,3.28484 0,3.28458 -0.316962,0 c -0.174346,0 -0.409886,0.0356 -0.523319,0.0791 -0.115817,0.0444 -0.236432,2.3e-4 -0.275229,-0.10088 -0.03801,-0.099 -0.05342,-1.59458 -0.03405,-3.32349 l 0.03533,-3.14352 0.557114,-0.0402 0.557115,-0.0404 z m 18.220933,0 0.546619,0.0404 0.546878,0.0402 -0.0325,3.21059 c -0.0178,1.76584 -0.0425,3.22046 -0.055,3.23235 -0.0126,0.0119 -0.229249,0.0419 -0.481588,0.0666 l -0.458799,0.0448 -0.0371,-1.40918 c -0.037,-1.40052 -0.0392,-1.40917 -0.360489,-1.40917 -0.322898,0 -0.323358,0.002 -0.323358,1.36206 l 0,1.36207 -0.462899,0.054 c -0.254539,0.0297 -0.490498,0.0264 -0.524338,-0.007 -0.0339,-0.0338 -0.0614,-1.52642 -0.0614,-3.31684 l 0,-3.25539 0.524348,0 0.524339,0 0,1.3764 0,1.37641 0.327718,0 0.327709,0 0,-1.38383 0,-1.38409 z m -51.938931,0.0151 0.757583,0 0.355111,3.23517 c 0.19526,1.77928 0.341023,3.24834 0.323874,3.26461 -0.01715,0.0163 -0.237367,0.0499 -0.489268,0.0748 -0.443563,0.0439 -0.46178,0.0277 -0.575805,-0.5118 -0.09819,-0.46463 -0.169022,-0.55712 -0.426797,-0.55712 -0.273215,0 -0.309024,0.0609 -0.309024,0.52435 0,0.4113 -0.04946,0.52473 -0.229401,0.52614 -0.12617,9.8e-4 -0.348872,0.034 -0.4949,0.0732 -0.146028,0.0392 -0.296979,0.0397 -0.335395,10e-4 -0.03842,-0.0384 0.09269,-1.50164 0.291358,-3.25182 0.198665,-1.75017 0.364366,-3.22641 0.368168,-3.28048 0.0038,-0.0541 0.347806,-0.0983 0.764496,-0.0983 z m 17.231903,0.78524 c -0.21721,0.004 -0.423531,0.0531 -0.528952,0.15848 -0.08652,0.0865 -0.157201,0.32064 -0.157201,0.52025 0,0.25603 -0.05371,0.34249 -0.182291,0.29315 -0.108955,-0.0418 -0.174857,-0.23789 -0.163858,-0.48748 0.01799,-0.40805 0.0044,-0.41849 -0.603712,-0.45752 -0.658363,-0.0423 -0.649807,-0.0497 -0.955494,0.82646 -0.08185,0.23461 -0.105391,0.22083 -0.224791,-0.13109 -0.07338,-0.21629 -0.191694,-0.46699 -0.262939,-0.55711 -0.151129,-0.19118 -1.225639,-0.22264 -1.339022,-0.0392 -0.04243,0.0686 0.160608,0.85545 0.451119,1.74841 0.447363,1.37508 0.528184,1.79331 0.528184,2.73284 0,1.14456 0.107912,1.42403 0.550459,1.42403 0.150868,0 0.236053,0.0974 0.236057,0.27011 0,0.23194 0.06943,0.26434 0.491572,0.2294 l 0.491571,-0.0407 0.08218,-1.24532 c 0.05818,-0.88084 0.200727,-1.59061 0.486708,-2.4251 l 0.404267,-1.17977 0.0049,2.03849 c 0.0052,2.10454 0.06385,2.3529 0.555579,2.3529 0.148564,0 0.236057,0.0971 0.236057,0.26217 0,0.21848 0.08739,0.26217 0.524343,0.26217 0.504488,0 0.524344,-0.0162 0.524344,-0.42731 0,-0.5241 0.452511,-0.9105 0.564539,-0.4821 0.04105,0.15698 0.223376,0.28693 0.472114,0.33668 0.28523,0.0571 0.405292,0.1561 0.405292,0.33437 0,0.21696 0.07997,0.24754 0.557115,0.21302 l 0.557114,-0.0402 0.07707,-0.72098 c 0.04232,-0.39653 0.08657,-0.65211 0.09831,-0.56787 0.02686,0.19251 0.916346,1.12399 1.266567,1.32623 0.144195,0.0833 0.487819,0.15296 0.763729,0.15515 0.663805,0.005 1.266378,-0.56227 1.272198,-1.19847 0.0035,-0.38692 0.0205,-0.40723 0.151313,-0.18178 0.201722,0.34767 0.926243,1.06052 1.258628,1.23841 0.150083,0.0803 0.48779,0.14594 0.750415,0.14594 0.581711,0 1.24378,-0.58513 1.24378,-1.09913 0,-0.31148 0.03997,-0.29091 0.62701,0.32131 0.708758,0.73917 1.309228,0.93061 2.008789,0.64084 0.751432,-0.31125 0.997531,-1.54152 0.510262,-2.55029 -0.139302,-0.28839 -0.255368,-0.57877 -0.25782,-0.64519 -0.0024,-0.0664 -0.09705,-0.22292 -0.210197,-0.34794 -0.190281,-0.21026 -0.175388,-0.23392 0.196884,-0.31569 0.263896,-0.058 0.42735,-0.18806 0.47493,-0.37764 0.09493,-0.37822 -0.624337,-1.9846 -0.971879,-2.1706 -0.144919,-0.0776 -0.5668,-0.14107 -0.93757,-0.14107 -0.561205,0 -0.734737,0.0606 -1.035886,0.36176 -0.19896,0.19896 -0.392676,0.44967 -0.430638,0.55712 -0.09647,0.27306 -0.250268,0.0907 -0.354853,-0.42065 -0.03926,-0.19197 -0.06817,-0.29838 -0.143375,-0.35793 l 0,2.49141 0,2.50088 -0.383273,0.38302 c -0.464617,0.46462 -1.169917,0.51437 -1.805247,0.12699 -0.54187,-0.33041 -0.585413,-0.59616 -0.5374,-3.28305 l 0.03866,-2.16292 0.524343,0 0.524343,0 0.03584,2.33574 c 0.03269,2.131 0.05568,2.33214 0.262172,2.29247 0.202616,-0.0389 0.230128,-0.28738 0.262172,-2.36877 l 0.03584,-2.32499 0.521271,0 0.509494,0 c -0.08765,-0.0598 -0.234682,-0.0655 -0.517944,-0.0655 -0.563632,0 -0.585863,0.0152 -0.625473,0.42603 -0.04652,0.48251 -0.286751,0.58672 -0.286751,0.12443 0,-0.41269 -0.238041,-0.616 -0.720972,-0.616 -0.572491,0 -0.71943,0.20916 -0.731725,1.04203 l -0.01075,0.72763 -0.308513,-0.67489 c -0.392871,-0.85922 -0.730854,-1.09477 -1.570726,-1.09477 -0.763167,0 -1.139404,0.21437 -1.375121,0.78344 -0.131807,0.31822 -0.203036,0.36999 -0.345894,0.25142 -0.09891,-0.0821 -0.17973,-0.27774 -0.17973,-0.43473 0,-0.39952 -0.244414,-0.60013 -0.731213,-0.60013 -0.535828,0 -0.645668,0.14602 -0.913762,1.21332 -0.200556,0.79842 -0.44553,1.07514 -0.456751,0.51589 -0.0024,-0.12191 -0.118518,-0.45767 -0.25782,-0.74606 -0.139302,-0.28839 -0.255368,-0.59172 -0.257819,-0.67413 -0.0058,-0.19706 -0.398128,-0.3168 -0.760144,-0.3103 z m 10.051111,0.13236 c 0.0042,0.003 0.0079,0.006 0.01178,0.009 l 0,-0.009 -0.01178,0 z m 7.776567,-0.13236 c -0.217211,0.004 -0.423531,0.0531 -0.528953,0.15848 -0.112164,0.11216 -0.1572,0.93227 -0.1572,2.85778 0,2.79569 0.03994,3.01499 0.550458,3.01499 0.148564,0 0.236056,0.0971 0.236056,0.26217 0,0.21848 0.08739,0.26217 0.524344,0.26217 0.504488,0 0.524344,-0.0162 0.524344,-0.42731 0,-0.5241 0.45251,-0.91049 0.564539,-0.4821 0.04105,0.15698 0.223375,0.28693 0.472113,0.33668 0.280086,0.056 0.405292,0.15709 0.405292,0.32695 0,0.37263 1.044069,0.35764 1.141881,-0.0164 0.09694,-0.37069 0.693321,-0.36386 0.693321,0.008 0,0.23194 0.06943,0.26434 0.491573,0.2294 0.400141,-0.0331 0.499674,-0.0974 0.53484,-0.34564 0.02961,-0.209 0.105202,-0.28119 0.240153,-0.2294 0.108306,0.0416 0.244064,0.0755 0.301856,0.0755 0.05779,0 0.135878,0.11798 0.173586,0.26217 0.05225,0.19979 0.178932,0.26217 0.532025,0.26217 0.254835,0 0.48859,-0.0442 0.519479,-0.0983 0.10745,-0.1881 -0.640391,-5.27296 -0.798804,-5.43137 -0.08771,-0.0877 -0.159506,-0.28333 -0.159506,-0.43474 0,-0.1514 -0.07068,-0.34617 -0.1572,-0.43269 -0.210346,-0.21034 -1.501679,-0.20506 -1.633709,0.007 -0.0562,0.0901 -0.229238,1.04869 -0.384553,2.13016 l -0.282398,1.96629 -0.01639,-1.52413 c -0.01271,-1.18002 -0.06079,-1.56115 -0.213014,-1.68748 -0.108146,-0.0897 -0.196628,-0.29157 -0.196628,-0.44856 0,-0.39953 -0.244416,-0.60013 -0.731213,-0.60013 -0.535829,0 -0.645668,0.14602 -0.913762,1.21331 -0.200556,0.79843 -0.445531,1.07515 -0.456752,0.5159 -0.0024,-0.12192 -0.118517,-0.45768 -0.25782,-0.74607 -0.139301,-0.28839 -0.255368,-0.59171 -0.257819,-0.67412 -0.0058,-0.19706 -0.398128,-0.31681 -0.760143,-0.3103 z m -27.822464,0.001 c -0.570311,0 -0.732973,0.0591 -1.057136,0.38327 -0.210746,0.21075 -0.383273,0.47827 -0.383273,0.5945 0,0.41675 -0.504981,-0.0308 -0.548921,-0.48646 -0.01816,-0.18832 -0.0392,-0.29359 -0.106507,-0.35767 l 0,2.80837 0,2.82578 -0.449327,0 c -0.441863,0 -0.456174,-0.0178 -0.86358,-1.08146 -0.227833,-0.5948 -0.46802,-1.1374 -0.533816,-1.20589 -0.07247,-0.0754 -0.119565,0.35087 -0.119565,1.08146 0,1.10146 -0.02176,1.20589 -0.251419,1.20589 -0.138299,0 -0.333156,0.0314 -0.432942,0.0696 -0.09978,0.0383 -0.222617,0.0285 -0.272924,-0.0218 -0.05031,-0.0503 -0.0914,-1.34991 -0.0914,-2.88799 l 0,-2.79659 0.443696,0 0.443439,0 0.423469,1.27809 c 0.2328,0.70295 0.476183,1.33496 0.540984,1.40431 0.07009,0.075 0.103891,-0.4295 0.08347,-1.24532 l -0.03431,-1.37154 0.557115,-0.0402 0.537146,-0.0389 c -0.07487,-0.0558 -0.197656,-0.0753 -0.415276,-0.0932 -0.688693,-0.0567 -0.873419,0.13966 -0.886879,0.94218 l -0.01126,0.67208 -0.385832,-0.82697 c -0.380877,-0.81627 -0.392231,-0.82648 -0.873576,-0.78655 l -0.487731,0.0404 -0.03533,2.9136 -0.03533,2.91359 0.317985,0.0796 c 0.174805,0.0439 0.347417,0.1927 0.383529,0.33079 0.04932,0.18861 0.182746,0.25117 0.536632,0.25117 l 0.47109,0 0.0128,-0.81929 0.0128,-0.81929 0.201494,0.49157 c 0.110922,0.27037 0.250396,0.49157 0.309793,0.49157 0.0594,0 0.249431,0.15265 0.422444,0.33924 0.20845,0.22481 0.420363,0.32431 0.628035,0.29494 0.28434,-0.0402 0.32049,-0.12328 0.389161,-0.89635 0.04163,-0.46863 0.08588,-0.74233 0.09831,-0.60832 0.01244,0.134 0.340467,0.56168 0.729165,0.95037 0.597336,0.59734 0.781102,0.70664 1.18643,0.70664 0.635547,0 1.229953,-0.32159 1.329805,-0.71944 0.071,-0.28286 0.103822,-0.29839 0.273437,-0.12878 0.106015,0.10602 0.270251,0.19279 0.364839,0.19279 0.09459,0 0.20378,0.12174 0.242713,0.27062 0.05862,0.22417 0.157061,0.26359 0.572477,0.2294 0.497008,-0.0409 0.502382,-0.0472 0.579389,-0.69665 0.04275,-0.36049 0.08699,-0.58187 0.09831,-0.49183 0.0431,0.34257 1.034319,1.21281 1.381522,1.21281 l 0.343076,0 0,-2.74181 c 0,-1.84785 -0.04611,-2.75734 -0.141582,-2.78917 -0.07791,-0.026 -0.183564,-0.25218 -0.234777,-0.50258 -0.04222,-0.20642 -0.07108,-0.31869 -0.147984,-0.38046 l 0,2.80914 0,2.81836 -0.436014,0 c -0.428606,0 -0.444254,-0.0208 -0.908129,-1.21255 l -0.471857,-1.21255 -0.0097,1.21255 c -0.0094,1.19242 -0.0147,1.21255 -0.326436,1.21255 -0.174346,0 -0.409886,0.0356 -0.523319,0.0791 -0.116098,0.0446 -0.236643,-2e-5 -0.27574,-0.1019 -0.0382,-0.0996 -0.05336,-1.38865 -0.0338,-2.8647 l 0.03559,-2.68368 0.407338,-0.0397 c 0.451828,-0.044 0.377813,-0.16601 1.055601,1.7438 l 0.372263,1.04869 0.03712,-1.40918 0.03738,-1.40917 0.519735,0 0.508726,0 c -0.08766,-0.0609 -0.234581,-0.0655 -0.518455,-0.0655 l -0.584509,0 -0.03943,0.75374 c -0.02162,0.41456 -0.08061,0.7535 -0.131087,0.75324 -0.05048,-2.7e-4 -0.203985,-0.28047 -0.341285,-0.62266 -0.332908,-0.82971 -0.440946,-0.94987 -0.854362,-0.94987 -0.523684,0 -0.664663,0.231 -0.675399,1.10758 l -0.0097,0.79317 -0.372775,-0.80904 c -0.432332,-0.93795 -0.654461,-1.09171 -1.575591,-1.09171 z m 5.10262,0.13108 c 0.004,0.003 0.0075,0.006 0.01126,0.009 l 0,-0.009 -0.01126,0 z m -7.218427,-0.0136 c 0.0068,0.005 0.01393,0.0104 0.01997,0.0161 l 0,-0.0177 -0.01997,0.001 z m 38.642166,-0.11751 c -0.575788,0 -0.798837,0.0645 -1.091443,0.31594 l -0.367911,0.31619 -0.04224,2.0623 c -0.02325,1.13425 -0.0078,2.20015 0.03457,2.36877 0.09109,0.36294 0.944753,1.33578 1.318539,1.50263 0.646081,0.28839 1.900745,-0.12193 1.900745,-0.62163 0,-0.20608 0.210362,-0.2352 0.327714,-0.0453 0.04456,0.0721 0.195456,0.13108 0.335395,0.13108 0.167045,0 0.254492,0.09 0.254492,0.26218 0,0.24161 0.08739,0.26217 1.11423,0.26217 l 1.11423,0 0,-0.44267 c 0,-0.24352 -0.08848,-0.51627 -0.196629,-0.60602 -0.108146,-0.0898 -0.196629,-0.33301 -0.196629,-0.54048 0,-0.33173 -0.04741,-0.37713 -0.393257,-0.37713 -0.492783,0 -0.515248,-0.23044 -0.03277,-0.33616 0.198267,-0.0434 0.434222,-0.10179 0.524343,-0.12955 0.233939,-0.0721 0.206955,-0.83688 -0.03277,-0.92887 -0.121321,-0.0466 -0.196629,-0.24582 -0.196629,-0.52025 0,-0.39349 -0.04156,-0.44685 -0.360486,-0.46264 -0.348956,-0.0173 -0.350005,-0.0194 -0.03277,-0.0694 0.884011,-0.13924 0.917601,-0.16212 0.917601,-0.62522 0,-0.24496 -0.06367,-0.46663 -0.141583,-0.4926 -0.07791,-0.026 -0.1835,-0.25218 -0.234521,-0.50258 l -0.09268,-0.45522 -1.089141,-0.0384 c -0.690132,-0.0243 -1.156679,0.0177 -1.273223,0.11445 -0.117548,0.0976 -0.183826,0.41624 -0.183826,0.88278 0,0.66999 -0.01589,0.70899 -0.192532,0.47544 -0.105852,-0.13995 -0.194336,-0.36216 -0.19663,-0.49387 -0.0023,-0.13172 -0.176622,-0.41192 -0.387368,-0.62266 -0.330974,-0.33098 -0.481657,-0.38328 -1.106806,-0.38328 z m 11.426235,0 c -1.361256,0 -1.546665,0.36174 -1.546665,3.01703 0,1.20552 0.0571,2.0883 0.145939,2.25433 0.17789,0.33238 0.890737,1.0569 1.238406,1.25863 0.13976,0.0811 0.479879,0.14912 0.755788,0.15131 0.600048,0.005 1.268106,-0.56716 1.268106,-1.08581 0,-0.29663 0.0587,-0.26465 0.706627,0.38327 0.621208,0.6212 0.770758,0.70664 1.235336,0.70664 0.377359,0 0.643978,-0.0972 0.931937,-0.3395 0.369749,-0.31112 0.403239,-0.40634 0.403239,-1.14444 0,-1.10235 -0.388439,-2.008 -1.071727,-2.49883 -0.393528,-0.2827 -0.481568,-0.40597 -0.349728,-0.48953 0.276889,-0.17549 0.372768,-0.13677 0.372768,0.15055 0,0.34512 0.322769,0.46325 0.742738,0.2719 0.290109,-0.13218 0.326479,-0.21841 0.283169,-0.67259 -0.0447,-0.46927 -0.0202,-0.52101 0.248599,-0.52101 0.298279,0 0.298529,10e-4 0.298529,2.1368 0,2.20833 0.0545,2.45122 0.550458,2.45122 0.15087,0 0.23606,0.0974 0.23606,0.27011 0,0.23194 0.0694,0.26434 0.491568,0.2294 l 0.491568,-0.0407 0.0359,-2.1957 c 0.029,-1.77297 0.0713,-2.19569 0.2189,-2.19569 0.100509,0 0.274269,-0.0351 0.386348,-0.0781 0.17771,-0.0682 0.20845,0.17073 0.24015,1.86798 0.0347,1.85918 0.0491,1.95173 0.323108,2.07203 0.15778,0.0693 0.315539,0.23525 0.350499,0.36894 0.0506,0.19329 0.16642,0.23458 0.565308,0.20175 l 0.501559,-0.0412 0.0353,-2.63632 c 0.03,-2.22891 0.005,-2.66162 -0.16386,-2.80146 -0.109599,-0.091 -0.199179,-0.29387 -0.199179,-0.45087 0,-0.39719 -0.243749,-0.60013 -0.720978,-0.60013 -0.506848,0 -0.720967,0.20567 -0.720967,0.69256 0,0.52936 -0.310379,0.3883 -0.393259,-0.17871 l -0.0656,-0.4483 -1.291396,-0.0376 c -1.445415,-0.0422 -1.656504,0.0437 -1.661104,0.67642 l -0.003,0.4099 -0.20175,-0.40862 c -0.246869,-0.50043 -0.667537,-0.70561 -1.447065,-0.70561 -0.481518,0 -0.666268,0.0726 -0.976997,0.38327 -0.225249,0.22525 -0.383268,0.5224 -0.383268,0.72098 0,0.48249 -0.21556,0.41704 -0.392489,-0.11905 -0.220679,-0.66866 -0.692808,-0.9852 -1.469085,-0.9852 z m 15.520869,0 c -0.600988,0 -0.756948,0.0552 -1.085036,0.38327 -0.21075,0.21075 -0.383279,0.47827 -0.383279,0.5945 0,0.41675 -0.504979,-0.0308 -0.548918,-0.48646 -0.0182,-0.18832 -0.0392,-0.29359 -0.10651,-0.35767 l 0,2.80837 0,2.82578 -0.449329,0 c -0.441858,0 -0.456168,-0.0178 -0.863577,-1.08146 -0.227829,-0.5948 -0.468018,-1.1374 -0.533818,-1.20589 -0.0725,-0.0754 -0.11956,0.35087 -0.11956,1.08146 0,1.10146 -0.0218,1.20589 -0.251419,1.20589 -0.138299,0 -0.333159,0.0314 -0.432948,0.0696 -0.0998,0.0383 -0.22261,0.0285 -0.27292,-0.0218 -0.0503,-0.0503 -0.0914,-1.34991 -0.0914,-2.88799 l 0,-2.79659 0.443688,0 0.443439,0 0.423468,1.27809 c 0.23281,0.70295 0.476189,1.33496 0.540989,1.40431 0.0701,0.075 0.103889,-0.4295 0.0835,-1.24532 l -0.0343,-1.37154 0.557108,-0.0402 0.537148,-0.0389 c -0.0749,-0.0558 -0.197649,-0.0753 -0.415279,-0.0932 -0.688687,-0.0567 -0.873417,0.13966 -0.886877,0.94218 l -0.0113,0.67208 -0.385838,-0.82697 c -0.380859,-0.81624 -0.392219,-0.82645 -0.873558,-0.78652 l -0.487738,0.0404 -0.0353,2.91359 -0.0353,2.9136 0.317989,0.0796 c 0.1748,0.0439 0.347409,0.1927 0.383529,0.33079 0.0493,0.18861 0.182739,0.25116 0.536628,0.25116 l 0.471089,0 0.0128,-0.81929 0.0128,-0.81928 0.201499,0.49157 c 0.11092,0.27036 0.250399,0.49157 0.309789,0.49157 0.0594,0 0.249429,0.15265 0.422448,0.33924 0.20845,0.22481 0.420359,0.3243 0.628038,0.29494 0.284339,-0.0402 0.320489,-0.12328 0.389159,-0.89635 0.0416,-0.46863 0.0859,-0.74233 0.0983,-0.60832 0.0125,0.13401 0.340469,0.56167 0.729167,0.95037 0.597338,0.59734 0.781098,0.70664 1.186427,0.70664 0.669726,0 1.197996,-0.30945 1.369746,-0.80214 0.22598,-0.64823 0.19044,-2.33493 -0.0512,-2.42765 -0.26406,-0.10133 -0.25334,-0.81591 0.0166,-1.11424 0.19793,-0.21871 0.18684,-0.29744 -0.15464,-1.10092 -0.20226,-0.4759 -0.48841,-0.9496 -0.63572,-1.05278 -0.15139,-0.10604 -0.572846,-0.18767 -0.969575,-0.18767 z m -2.143713,0.11751 c 0.007,0.005 0.0139,0.0104 0.02,0.0161 l 0,-0.0177 -0.02,0.001 z m -61.345112,-0.007 c 0.377099,-0.001 0.762969,0.11093 1.025389,0.33642 0.366731,0.31514 0.368094,0.32149 0.411435,2.1957 0.05056,2.18641 -0.06956,2.76798 -0.631874,3.05876 -0.587062,0.30359 -1.230136,0.24963 -1.695668,-0.14209 l -0.403242,-0.33924 0,-2.22283 c 0,-2.1852 0.0055,-2.2281 0.321826,-2.54441 0.226894,-0.2269 0.595035,-0.34123 0.972134,-0.34231 z m 15.370842,0 c 0.377099,10e-4 0.745241,0.11542 0.972135,0.34231 0.315805,0.31581 0.321826,0.36194 0.321826,2.50063 l 0,2.17905 -0.383273,0.38302 c -0.464616,0.46462 -1.169916,0.51412 -1.805246,0.12673 -0.538524,-0.32836 -0.596153,-0.64832 -0.541753,-3.00935 0.04293,-1.8635 0.04435,-1.87097 0.410923,-2.18597 0.262419,-0.22549 0.648291,-0.3375 1.025388,-0.33642 z m 32.640384,0 c 0.377098,10e-4 0.745237,0.11542 0.972126,0.34231 0.315809,0.31581 0.321829,0.36194 0.321829,2.50063 l 0,2.17905 -0.383268,0.38302 c -0.464619,0.46462 -1.169917,0.51412 -1.805244,0.12673 -0.538529,-0.32836 -0.596159,-0.64832 -0.541759,-3.00935 0.0429,-1.8635 0.0444,-1.87097 0.410929,-2.18597 0.262419,-0.22549 0.648288,-0.3375 1.025387,-0.33642 z m -75.3549177,0.008 -0.08244,0.49772 c -0.04523,0.27373 -0.08266,0.68943 -0.08346,0.92375 l -0.0015,0.42603 -0.8561542,0 c -0.9844167,0 -1.0125917,-0.0314 -0.9537009,-1.06431 l 0.0402,-0.70536 0.9685508,-0.0389 0.9685499,-0.0389 z m 68.2593797,0.002 0,0.59501 0,0.59501 -0.589886,0 -0.589886,0 0,0.52434 c 0,0.52435 0,0.52435 0.524343,0.52435 0.524343,0 0.524343,0 0.524343,0.52434 0,0.52435 0,0.52435 -0.524343,0.52435 l -0.524343,0 0,0.65543 0,0.65543 0.589886,0 0.589886,0 0,0.52435 0,0.52434 -0.906848,0 c -0.498785,0 -0.999772,0.0356 -1.113206,0.0791 -0.116097,0.0445 -0.236643,-10e-6 -0.275741,-0.1019 -0.0382,-0.0996 -0.05336,-1.38864 -0.03379,-2.86469 l 0.03559,-2.68369 1.147002,-0.0379 1.147001,-0.0379 z m 14.812702,0.001 0,0.5945 c 0,0.57313 -0.0141,0.5945 -0.393258,0.5945 l -0.393259,0 0,2.22846 0,2.22847 -0.316959,0 c -0.174349,0 -0.409889,0.0356 -0.523318,0.0791 -0.334149,0.12823 -0.379999,-0.23458 -0.309539,-2.44276 l 0.0663,-2.07921 -0.408618,-0.0399 c -0.382669,-0.0373 -0.408619,-0.0729 -0.408619,-0.56402 l 0,-0.52435 1.343636,-0.0374 1.343625,-0.0374 z m -22.981502,0.008 c 0.104335,0.002 0.233917,0.0187 0.398379,0.0274 l 0.74171,0.0392 0.350502,2.75281 c 0.192726,1.51405 0.343601,2.76199 0.335395,2.7733 -0.0082,0.0113 -0.250805,0.0408 -0.539194,0.0655 l -0.524343,0.0451 -0.0402,-0.55712 c -0.03562,-0.49237 -0.07752,-0.55711 -0.360486,-0.55711 -0.28615,0 -0.32029,0.0557 -0.32029,0.52434 0,0.41131 -0.04946,0.52474 -0.2294,0.52614 -0.126169,9.8e-4 -0.348872,0.034 -0.4949,0.0732 -0.349007,0.0938 -0.455084,-0.0298 -0.386857,-0.45087 0.03075,-0.18975 0.177789,-1.31844 0.32669,-2.50805 0.310722,-2.48243 0.290873,-2.76135 0.742991,-2.75383 z m -66.715024,0.001 0.919137,0 c 1.0430505,0 1.0757744,0.0367 1.0791544,1.21255 l 0.0018,0.62266 -0.8443772,0 c -0.4643775,0 -0.8729042,-0.0463 -0.907872,-0.10292 -0.03497,-0.0566 -0.1049677,-0.4695 -0.1556645,-0.91761 l -0.09217,-0.81468 z m 2.3933411,0 0.917601,0 0.917601,0 0,0.91761 0,0.9176 -0.8302963,0 c -0.4566155,0 -0.8695361,-0.0392 -0.917601,-0.0873 -0.04807,-0.0481 -0.08731,-0.46099 -0.08731,-0.9176 l 0,-0.8303 z m 4.6102799,0 0.963686,0 0.963942,0 -0.06452,0.49158 c -0.03541,0.27036 -0.09336,0.68328 -0.128781,0.9176 l -0.06426,0.42603 -0.8244077,0 c -0.4533495,0 -0.8489013,-0.0243 -0.8789412,-0.054 -0.03004,-0.0298 -0.03467,-0.44268 -0.0105,-0.9176 l 0.04378,-0.86359 z m 35.314326,0 c 0.319579,0 0.580927,0.0498 0.580927,0.11061 0,0.0608 -0.235956,0.8368 -0.524345,1.7246 -0.440851,1.35715 -0.524343,1.78823 -0.524343,2.70775 0,1.06932 -0.007,1.09375 -0.316961,1.09375 -0.174347,0 -0.3987,0.0313 -0.498484,0.0696 -0.307566,0.11803 -0.364327,-0.0734 -0.364327,-1.22893 0,-0.91062 -0.08539,-1.38975 -0.464947,-2.6056 -0.255769,-0.81933 -0.499501,-1.57907 -0.541495,-1.6885 -0.06303,-0.16425 0.0352,-0.19204 0.563258,-0.15848 l 0.639812,0.0407 0.183316,0.96497 c 0.193881,1.02119 0.313452,1.02589 0.466993,0.0182 0.158738,-1.04181 0.164055,-1.04869 0.800596,-1.04869 z m 13.693865,0 c 0.799076,0 1.280732,0.37292 1.393044,1.07839 0.07032,0.44168 0.04411,0.50135 -0.274974,0.62266 -0.636672,0.24206 -0.839805,0.1751 -0.884829,-0.29187 -0.05923,-0.61431 -0.422197,-0.57159 -0.474419,0.0558 -0.03734,0.44866 0.01043,0.51984 0.694602,1.0364 0.859433,0.64888 0.984168,0.84324 0.984168,1.53412 0,0.76061 -0.241639,1.3218 -0.66311,1.53975 -1.0469,0.54138 -2.156951,-0.10305 -2.06537,-1.19898 0.03659,-0.43782 0.09127,-0.50707 0.481587,-0.60755 0.527148,-0.1357 0.60832,-0.0731 0.60832,0.46802 0,0.28941 0.06877,0.42659 0.229401,0.45752 0.190436,0.0367 0.2294,-0.0541 0.2294,-0.53331 0,-0.53339 -0.04448,-0.60918 -0.585535,-0.99774 -0.943434,-0.67752 -0.987496,-0.7483 -0.987496,-1.58942 0,-0.63401 0.059,-0.83721 0.339492,-1.17056 0.29315,-0.34839 0.425931,-0.40324 0.975719,-0.40324 z m 14.480636,0 c 0.618126,0 0.736233,0.0459 1.03691,0.40325 0.494193,0.58731 0.450108,0.98888 -0.13544,1.23354 -0.261145,0.10911 -0.493216,0.19842 -0.515893,0.19842 -0.02267,0 -0.05985,-0.19171 -0.08244,-0.42603 -0.03133,-0.32495 -0.10317,-0.42603 -0.303136,-0.42603 -0.249693,0 -0.262172,0.0874 -0.262172,1.83521 0,1.74781 0.01248,1.83521 0.262172,1.83521 0.214724,0 0.269353,-0.10083 0.302367,-0.55712 0.02385,-0.32963 -0.0163,-0.55712 -0.09831,-0.55712 -0.07624,0 -0.138511,-0.23151 -0.138511,-0.51461 0,-0.56732 0.12245,-0.64293 0.896606,-0.55328 l 0.437808,0.0507 -0.04455,1.29166 c -0.03829,1.10985 -0.08411,1.33119 -0.324898,1.57176 -0.313029,0.31273 -1.24792,0.45505 -1.704629,0.25935 -0.622967,-0.26693 -0.702282,-0.58089 -0.702282,-2.7802 0,-2.02297 0.0059,-2.06504 0.339492,-2.46146 0.300677,-0.35733 0.418783,-0.40324 1.03691,-0.40324 z m 14.747163,0 c 0.867417,0 1.310856,0.39157 1.310856,1.15776 0,0.48936 -0.0252,0.52076 -0.517429,0.6457 l -0.517438,0.13135 -0.0397,-0.4757 c -0.0552,-0.66097 -0.418318,-0.65331 -0.473388,0.01 -0.0379,0.45586 0.009,0.52382 0.753737,1.10245 l 0.794198,0.61652 0,0.95063 c 0,0.90041 -0.0212,0.96812 -0.403239,1.28961 -0.902077,0.75905 -2.218483,0.1934 -2.218483,-0.95345 0,-0.58402 0.0168,-0.60383 0.622658,-0.73377 0.425959,-0.0914 0.426029,-0.0915 0.426029,0.44318 0,0.44737 0.0429,0.53484 0.262179,0.53484 0.217729,0 0.262169,-0.0875 0.262169,-0.51564 0,-0.45839 -0.0691,-0.57036 -0.622658,-1.00926 -0.907287,-0.7193 -0.950377,-0.79702 -0.950377,-1.71769 0,-0.7096 0.0477,-0.88058 0.321829,-1.15469 0.257349,-0.25734 0.455279,-0.32182 0.989037,-0.32182 z m 12.17767,0 c 0.778634,0 1.280264,0.36002 1.404564,1.00798 0.0742,0.38691 0.0437,0.43335 -0.40939,0.62266 -0.663285,0.27715 -0.697165,0.26707 -0.744265,-0.22146 -0.0263,-0.27305 -0.111579,-0.42603 -0.237599,-0.42603 -0.163879,0 -0.202669,0.31111 -0.232979,1.86798 -0.0351,1.80098 -0.0268,1.86798 0.229399,1.86798 0.227069,0 0.265749,-0.0848 0.265749,-0.58221 0,-0.32018 -0.059,-0.61855 -0.131079,-0.66311 -0.0721,-0.0446 -0.13109,-0.27999 -0.13109,-0.52307 0,-0.48451 0.182999,-0.57062 1.015914,-0.47851 l 0.42603,0.0471 0,1.01489 c 0,1.24712 -0.1761,1.78921 -0.66311,2.04106 -0.578355,0.29908 -1.223323,0.24274 -1.686451,-0.14696 l -0.403239,-0.33924 0,-2.22283 c 0,-2.1852 0.006,-2.22809 0.321829,-2.54441 0.255639,-0.25564 0.456049,-0.32183 0.975717,-0.32183 z m -53.243905,0.0138 c 0.398897,-0.002 0.457585,0.21826 0.835929,1.81985 0.161594,0.68405 0.325187,1.15596 0.363558,1.04869 0.03837,-0.10728 0.220117,-0.78498 0.403754,-1.50596 l 0.33386,-1.31086 0.524343,0 0.524344,0 0.03533,2.78558 0.03533,2.78559 -0.461361,0 c -0.253774,0 -0.505601,0.0147 -0.559674,0.0328 -0.05407,0.018 -0.12781,-0.52762 -0.163858,-1.21255 l -0.06554,-1.24532 -0.215062,0.72097 c -0.118341,0.39654 -0.259028,0.89795 -0.31261,1.11424 -0.08932,0.36056 -0.120669,0.30969 -0.375336,-0.61216 -0.152768,-0.55301 -0.321774,-1.04941 -0.375591,-1.10323 -0.05382,-0.0538 -0.0978,0.44284 -0.0978,1.10374 0,1.1835 -0.0047,1.20154 -0.316961,1.20154 -0.174347,0 -0.409886,0.0356 -0.52332,0.0791 -0.120239,0.0461 -0.237485,-0.003 -0.281373,-0.11701 -0.0414,-0.1079 -0.05683,-1.397 -0.03405,-2.8647 l 0.04148,-2.66857 0.490803,-0.0407 c 0.07279,-0.006 0.136828,-0.0107 0.193813,-0.011 z m 17.827678,0 c 0.398897,-0.002 0.457585,0.21826 0.835928,1.81985 0.161595,0.68405 0.325187,1.15596 0.363559,1.04869 0.03837,-0.10728 0.220116,-0.78498 0.403754,-1.50596 l 0.33386,-1.31086 0.524343,0 0.524343,0 0.03533,2.78558 0.03533,2.78559 -0.461361,0 c -0.253775,0 -0.505602,0.0147 -0.559675,0.0328 -0.05407,0.018 -0.127809,-0.52762 -0.163857,-1.21255 l -0.06554,-1.24532 -0.215062,0.72097 c -0.118344,0.39654 -0.259028,0.89795 -0.31261,1.11424 -0.08932,0.36056 -0.12067,0.30969 -0.375336,-0.61216 -0.152768,-0.55301 -0.321774,-1.04941 -0.375592,-1.10323 -0.05382,-0.0538 -0.0978,0.44284 -0.0978,1.10374 0,1.1835 -0.0047,1.20154 -0.316961,1.20154 -0.174348,0 -0.409886,0.0356 -0.523321,0.0791 -0.116097,0.0446 -0.236642,-2e-5 -0.27574,-0.1019 -0.0382,-0.0995 -0.05336,-1.38865 -0.03379,-2.8647 l 0.03559,-2.68368 0.490804,-0.0407 c 0.07279,-0.006 0.136827,-0.0107 0.193813,-0.011 z m 28.41645,0.0517 0.524338,0 0.524349,0 0.0353,2.78559 0.0353,2.78558 -0.319519,0 c -0.175789,0 -0.412448,0.0356 -0.525888,0.0791 -0.11609,0.0446 -0.236639,-10e-6 -0.275739,-0.1019 -0.0382,-0.0995 -0.0534,-1.38864 -0.0338,-2.8647 l 0.0356,-2.68368 z m -56.432469,0.91761 c -0.163882,0 -0.202672,0.31111 -0.232985,1.86798 -0.03522,1.80902 -0.02788,1.86798 0.232985,1.86798 0.260868,0 0.268206,-0.0589 0.232984,-1.86798 -0.03031,-1.55687 -0.0691,-1.86798 -0.232984,-1.86798 z m 15.337046,0 c -0.163881,0 -0.202671,0.31111 -0.232985,1.86798 -0.03522,1.80902 -0.02788,1.86798 0.232985,1.86798 0.260869,0 0.268207,-0.0589 0.232984,-1.86798 -0.03031,-1.55687 -0.0691,-1.86798 -0.232984,-1.86798 z m 32.640381,0 c -0.16388,0 -0.20267,0.31111 -0.23299,1.86798 -0.0352,1.80902 -0.0279,1.86798 0.23299,1.86798 0.260869,0 0.268209,-0.0589 0.232979,-1.86798 -0.0303,-1.55687 -0.0691,-1.86798 -0.232979,-1.86798 z m -55.272151,0.0338 c -0.02207,0.008 -0.02882,0.16127 -0.03533,0.49055 -0.0071,0.36048 -0.05029,0.96512 -0.09575,1.34363 -0.07449,0.62017 -0.05781,0.6882 0.169234,0.6882 0.229776,0 0.24777,-0.0836 0.204054,-0.95037 -0.02636,-0.52271 -0.09656,-1.12734 -0.156178,-1.34364 -0.04235,-0.15366 -0.06886,-0.23481 -0.08602,-0.22837 z m 40.390831,0.6649 c -0.02831,0.0169 -0.0545,0.18604 -0.100105,0.54662 -0.05015,0.39654 -0.09177,0.8537 -0.09243,1.01592 -6.76e-4,0.17529 0.07875,0.29494 0.195605,0.29494 0.149361,0 0.192796,-0.14968 0.181012,-0.62266 -0.0085,-0.34246 -0.05536,-0.79962 -0.104203,-1.01592 -0.03454,-0.15297 -0.05787,-0.232 -0.07988,-0.2189 z m 3.935649,0.28445 c 0.09964,0 0.217613,0.059 0.262172,0.13108 0.04613,0.0746 -0.06676,0.13109 -0.262172,0.13109 -0.195411,0 -0.308301,-0.0564 -0.262172,-0.13109 0.04456,-0.0721 0.162537,-0.13108 0.262172,-0.13108 z m 26.938144,0 c 0.14419,0 0.26217,0.059 0.26217,0.13108 0,0.0721 -0.11798,0.13109 -0.26217,0.13109 -0.144195,0 -0.262175,-0.059 -0.262175,-0.13109 0,-0.0721 0.11798,-0.13108 0.262175,-0.13108 z m -41.331986,0.005 c 0.08638,-0.004 0.161892,0.10765 0.203029,0.32285 0.03446,0.18024 0.05616,0.32591 0.04813,0.32362 -0.190805,-0.0545 -0.476837,-0.40862 -0.413229,-0.51154 0.05459,-0.0883 0.110237,-0.1325 0.162066,-0.13493 z m -56.3651299,0.2445 0.9040321,0.0392 0.903775,0.0392 0.03866,0.88484 0.03892,0.88483 -0.8582031,0 c -0.7293637,0 -0.8580012,-0.0344 -0.8589712,-0.2294 -6.26e-4,-0.12617 -0.03886,-0.54196 -0.08475,-0.92401 l -0.08347,-0.6946 z m 2.2666076,2.6e-4 0.8192863,0.0392 0.8192873,0.0389 0.03866,0.88483 0.03892,0.88484 -0.7706415,0 c -0.4238606,0 -0.8101373,-0.0392 -0.8582022,-0.0873 -0.04807,-0.0481 -0.08731,-0.46395 -0.08731,-0.92401 l 0,-0.83644 z m 5.2393378,0.0126 0.7906125,0 -0.0015,0.42603 c -7.93e-4,0.23432 -0.03801,0.64724 -0.0827,0.91761 l -0.08116,0.49157 -0.8254318,0 -0.8254313,0 0.06682,-0.75375 c 0.09842,-1.10814 0.07489,-1.08146 0.9588208,-1.08146 z m -1.9949624,0.0187 c 0.293501,0.002 0.5274033,0.0302 0.5717081,0.0745 0.05907,0.0591 0.06513,0.48513 0.01357,0.94679 -0.05156,0.46166 -0.1526945,0.84731 -0.2247923,0.85718 -0.0721,0.01 -0.4434596,-0.003 -0.8251753,-0.0289 l -0.6940887,-0.0471 0.03866,-0.87792 0.03866,-0.87766 0.7729455,-0.0399 c 0.1062666,-0.006 0.2106793,-0.008 0.308513,-0.007 z m 66.4812709,0.0504 c 0.112621,-0.0141 0.14312,0.11638 0.14312,0.52486 0,0.32218 -0.01475,0.58124 -0.03277,0.57555 -0.283739,-0.0896 -0.360486,-0.21246 -0.360486,-0.57657 0,-0.26473 0.07665,-0.4632 0.196629,-0.50924 0.01959,-0.008 0.03742,-0.0126 0.05351,-0.0146 z m -17.684558,0.13979 0.524857,0.51257 c 0.360223,0.3518 0.473363,0.53971 0.360485,0.59885 -0.09046,0.0474 -0.326588,0.1249 -0.524856,0.17205 -0.358179,0.0852 -0.360486,0.0813 -0.360486,-0.59885 l 0,-0.68462 z m 29.232151,0.0428 0.524858,0.48543 c 0.288609,0.26704 0.509818,0.49918 0.491568,0.5159 -0.0183,0.0167 -0.254489,0.0908 -0.524858,0.16462 l -0.491568,0.13416 0,-0.65005 0,-0.65006 z m -27.73388,1.42557 c 0.01017,-0.006 0.0221,0.0144 0.03456,0.0622 0.03323,0.12754 0.03104,0.30451 -0.0049,0.39326 -0.03591,0.0888 -0.0631,-0.0157 -0.06042,-0.23197 0.0017,-0.13518 0.01377,-0.21436 0.03072,-0.22351 z m 29.178125,0.0164 c 0.0227,0.003 0.0479,0.0172 0.0748,0.044 0.0424,0.0424 0.0515,0.18489 0.0202,0.3167 -0.0543,0.229 -0.0613,0.22921 -0.15874,0.005 -0.0835,-0.19245 -0.0344,-0.37901 0.0637,-0.36535 z m -84.6968298,0.66593 0.8587152,0 0.8584592,0 0,0.9176 0,0.9176 -0.7132917,0 c -0.3922797,0 -0.7385206,-0.0442 -0.7693615,-0.0983 -0.03084,-0.0541 -0.09608,-0.46699 -0.1451675,-0.9176 l -0.08935,-0.81929 z m 2.1104311,0 0.7865154,0 0.7865154,0 0,0.9176 0,0.9176 -0.7068907,0 c -0.8180573,0 -0.8661401,-0.0624 -0.8661401,-1.12498 l 0,-0.71022 z m 1.9662885,0 0.8674192,0 c 0.8355003,0 0.8644472,0.0108 0.7883074,0.29494 -0.04347,0.16222 -0.07992,0.57514 -0.0809,0.9176 l -0.0018,0.62266 -0.6992097,0 c -0.3845188,0 -0.7384506,-0.0392 -0.7865155,-0.0873 -0.04806,-0.0481 -0.08731,-0.46098 -0.08731,-0.9176 l 0,-0.8303 z m 2.0973742,0 0.7865144,0 c 0.8805846,0 0.8460546,-0.0564 0.7015146,1.147 l -0.0827,0.6882 -0.7852351,0 -0.7854914,0 0.08116,-0.49157 c 0.04469,-0.27037 0.0819,-0.68329 0.0827,-0.9176 l 0.0015,-0.42603 z" />
</svg>
