<?xml version="1.0" encoding="UTF-8" standalone="no"?>
<svg xmlns:svg="http://www.w3.org/2000/svg" xmlns="http://www.w3.org/2000/svg" height="64" width="64" version="1.1">
  <path fill="#bebebe" d="M 22 42 L 22 50.035156 L 13.015625 50.044922 A 2.9775426 2.9775426 0 0 0 13.023438 56 L 50.984375 55.955078 A 2.9775426 2.9775426 0 1 0 50.976562 50 L 42 50.009766 L 42 42 L 22 42 z " />
  <path fill="#bebebe" d="M 7.8574219,8 C 5.672588,8 4,9.8952638 4,12 l 0,28 c 0,2.104736 1.6725885,4 3.8574219,4 L 56.142578,44 C 58.327411,44 60,42.104736 60,40 L 60,12 C 60,9.8952644 58.327412,8 56.142578,8 L 7.8574219,8 Z M 8,12 56,12 56,40 8,40 8,12 Z" />
  <path fill="#bebebe" d="m 28,18 q 0,1.666667 -1.16667,2.833333 Q 25.66667,22 23.999995,22 22.33333,22 21.16667,20.833333 20,19.666667 20,18 20,16.333333 21.16667,15.166667 22.33333,14 23.999995,14 25.66667,14 26.83333,15.166667 28,16.333333 28,18 Z" />
  <path fill="#bebebe" d="M 44,27.62963 44,38 l -24,0 0,-4.444444 5.454547,-7.407408 2.72727,3.703704 L 36.909095,18 Z" />
</svg>
