<?xml version="1.0" encoding="UTF-8" standalone="no"?>
<svg xmlns:svg="http://www.w3.org/2000/svg" xmlns="http://www.w3.org/2000/svg" version="1.1" width="212" height="32" viewBox="0 0 212 32">
  <path fill="#bebebe" d="m 209.82062,20.812195 -18.8086,0 q 0.4834,3.581543 2.98828,5.778808 2.52686,2.175293 6.24024,2.175293 2.06543,0 4.32861,-0.681152 2.26319,-0.681152 3.69141,-1.801758 0.41748,-0.32959 0.7251,-0.32959 0.35156,0 0.61523,0.285645 0.26367,0.263672 0.26367,0.637207 0,0.373535 -0.35156,0.725098 -1.05469,1.098632 -3.75732,2.065429 -2.68067,0.944825 -5.51514,0.944825 -4.74609,0 -7.93213,-3.098145 -3.16406,-3.120117 -3.16406,-7.536621 0,-4.020996 2.96631,-6.899414 2.98828,-2.878418 7.38281,-2.878418 4.52637,0 7.44873,2.966308 2.92236,2.944336 2.87842,7.646485 z m -1.86768,-1.867676 q -0.54931,-3.054199 -2.90039,-4.96582 -2.3291,-1.911621 -5.55908,-1.911621 -3.22998,0 -5.55908,1.889648 -2.3291,1.889649 -2.90039,4.987793 l 16.91894,0 z m -38.8916,-8.085937 10.01953,0 q 0.65918,0 0.94483,0.263671 0.28564,0.263672 0.28564,0.681153 0,0.395508 -0.28564,0.659179 -0.28565,0.263672 -0.94483,0.263672 l -10.01953,0 0,12.282715 q 0,1.604004 1.27441,2.680664 1.29639,1.07666 3.7793,1.07666 1.86768,0 4.04297,-0.549316 2.17529,-0.571289 3.38379,-1.274414 0.43945,-0.285645 0.7251,-0.285645 0.35156,0 0.61523,0.285645 0.26367,0.263672 0.26367,0.637207 0,0.32959 -0.28564,0.615234 -0.70313,0.725098 -3.42774,1.582032 -2.70263,0.834961 -5.18554,0.834961 -3.22998,0 -5.1416,-1.516114 -1.91163,-1.516113 -1.91163,-4.086914 l 0,-12.282715 -3.40576,0 q -0.65918,0 -0.94482,-0.263672 -0.28565,-0.263671 -0.28565,-0.681152 0,-0.395508 0.28565,-0.65918 0.28564,-0.263671 0.94482,-0.263671 l 3.40576,0 0,-5.4492192 q 0,-0.6591797 0.26368,-0.9448242 0.26367,-0.2856446 0.65918,-0.2856446 0.41748,0 0.68115,0.2856446 0.26367,0.2856445 0.26367,0.9448242 l 0,5.4492192 z m -17.09473,1.208496 q 0,-0.637207 0.26368,-0.922852 0.26367,-0.285644 0.65917,-0.285644 0.41749,0 0.68116,0.285644 0.26367,0.285645 0.26367,0.966797 l 0,3.164062 q 0,0.65918 -0.26367,0.944825 -0.26367,0.285644 -0.68116,0.285644 -0.37353,0 -0.6372,-0.241699 -0.2417,-0.241699 -0.28565,-0.791016 -0.13183,-1.318359 -1.3623,-2.175293 -1.80176,-1.230468 -4.76807,-1.230468 -3.09814,0 -4.81201,1.252441 -1.29639,0.944824 -1.29639,2.109375 0,1.318359 1.53809,2.197266 1.05469,0.615234 3.99902,0.944824 3.84522,0.41748 5.33936,0.944824 2.13135,0.769043 3.16406,2.131348 1.05469,1.362304 1.05469,2.944336 0,2.351074 -2.26318,4.196777 -2.26319,1.823731 -6.63575,1.823731 -4.37256,0 -7.16308,-2.219239 0,0.747071 -0.0879,0.966797 -0.0879,0.219727 -0.32959,0.373535 -0.21973,0.153809 -0.50537,0.153809 -0.39551,0 -0.65918,-0.285645 -0.26368,-0.285644 -0.26368,-0.944824 l 0,-3.801269 q 0,-0.65918 0.2417,-0.944825 0.26367,-0.285644 0.68116,-0.285644 0.3955,0 0.65918,0.285644 0.28564,0.263672 0.28564,0.725098 0,1.010742 0.50537,1.691895 0.76904,1.054687 2.43897,1.757812 1.69189,0.681152 4.13085,0.681152 3.60352,0 5.36133,-1.340332 1.75782,-1.340332 1.75782,-2.834472 0,-1.713867 -1.77979,-2.746582 -1.80176,-1.032715 -5.25146,-1.384278 -3.42774,-0.351562 -4.92188,-0.922851 -1.49414,-0.571289 -2.3291,-1.713867 -0.83496,-1.142579 -0.83496,-2.460938 0,-2.373047 2.3291,-3.757324 2.3291,-1.40625 5.55908,-1.40625 3.82324,0 6.21826,1.867676 z m -27.77343,17.819824 0,-2.658692 q -4.021,3.38379 -8.59131,3.38379 -3.31787,0 -5.18555,-1.669922 -1.86768,-1.691895 -1.86768,-4.13086 0,-2.680664 2.46094,-4.680176 2.46094,-1.999511 7.18506,-1.999511 1.27441,0 2.76856,0.175781 1.49414,0.153809 3.22998,0.505371 l 0,-2.988281 q 0,-1.516113 -1.40625,-2.636719 -1.40625,-1.120605 -4.21875,-1.120605 -2.15332,0 -6.04248,1.252441 -0.70313,0.219727 -0.90088,0.219727 -0.35157,0 -0.61524,-0.263672 -0.2417,-0.263672 -0.2417,-0.65918 0,-0.373535 0.21973,-0.593262 0.30762,-0.32959 2.48291,-0.900879 3.42773,-0.922851 5.18555,-0.922851 3.49365,0 5.44922,1.73584 1.95556,1.713867 1.95556,3.88916 l 0,12.216797 2.46094,0 q 0.68115,0 0.9668,0.263672 0.28564,0.241699 0.28564,0.659179 0,0.395508 -0.28564,0.65918 -0.28565,0.263672 -0.9668,0.263672 l -4.32861,0 z m 0,-9.18457 q -1.29639,-0.373536 -2.74659,-0.549317 -1.45019,-0.175781 -3.0542,-0.175781 -4.02099,0 -6.28418,1.73584 -1.71386,1.296386 -1.71386,3.098144 0,1.669922 1.29638,2.8125 1.31836,1.142578 3.82325,1.142578 2.39502,0 4.43847,-0.944824 2.06543,-0.966797 4.24073,-3.054199 l 0,-4.064941 z m -36.298832,-1.362305 0,8.701172 6.328125,0 q 0.659179,0 0.944824,0.263672 0.285644,0.241699 0.285644,0.659179 0,0.395508 -0.285644,0.65918 -0.285645,0.263672 -0.944824,0.263672 l -10.656739,0 q -0.659179,0 -0.944824,-0.263672 -0.285644,-0.263672 -0.285644,-0.65918 0,-0.41748 0.285644,-0.659179 0.285645,-0.263672 0.944824,-0.263672 l 2.482911,0 0,-22.0166018 -2.482911,0 q -0.659179,0 -0.944824,-0.2416993 -0.285644,-0.2636718 -0.285644,-0.6811523 0,-0.4174805 0.285644,-0.6591797 0.285645,-0.2636719 0.944824,-0.2636719 l 10.722657,0 q 3.801269,0 6.196289,2.241211 2.41699,2.2412109 2.41699,5.251465 0,1.779785 -0.79101,3.208008 -0.76905,1.428222 -1.86768,2.241211 -1.647949,1.230468 -3.405761,1.801757 -1.274414,0.417481 -3.164063,0.417481 l -5.778808,0 z m 0,-1.845703 5.888672,0 q 2.043457,0 3.823242,-0.900879 1.801758,-0.922852 2.614748,-2.241211 0.83496,-1.318359 0.83496,-2.680664 0,-2.1752931 -1.867677,-3.911133 -1.867676,-1.7358398 -4.724121,-1.7358398 l -6.569824,0 0,11.4697268 z m -15.270996,-4.768067 0,-0.615234 q 0,-0.681152 0.263671,-0.966797 0.263672,-0.285644 0.65918,-0.285644 0.417481,0 0.681152,0.285644 0.263672,0.285645 0.263672,0.966797 l 0,4.174805 q -0.02197,0.681152 -0.285644,0.966797 -0.241699,0.285644 -0.65918,0.285644 -0.373535,0 -0.637207,-0.241699 -0.241699,-0.263672 -0.285644,-0.856934 -0.131836,-1.560058 -2.06543,-2.966308 -1.911621,-1.40625 -5.163574,-1.40625 -4.108887,0 -6.240235,2.5708 -2.131347,2.570801 -2.131347,5.888672 0,3.581543 2.351074,5.910645 2.351074,2.329101 6.086426,2.329101 2.15332,0 4.372558,-0.791015 2.241211,-0.791016 4.042969,-2.548828 0.461426,-0.439453 0.812988,-0.439453 0.373535,0 0.615235,0.263671 0.263672,0.2417 0.263672,0.615235 0,0.944824 -2.219239,2.395019 -3.581543,2.351075 -7.976074,2.351075 -4.460449,0 -7.338867,-2.834473 -2.856445,-2.856445 -2.856445,-7.229004 0,-4.460449 2.922363,-7.404785 2.944336,-2.944336 7.404785,-2.944336 4.240723,0 7.119141,2.526855 z M 38.851379,1.3883667 l 0,4.7680664 -2.724609,0 0,-4.7680664 2.724609,0 z m 0.06592,9.4702153 0,17.182617 7.250976,0 q 0.681153,0 0.966797,0.263672 0.285645,0.241699 0.285645,0.659179 0,0.395508 -0.285645,0.65918 -0.285644,0.263672 -0.966797,0.263672 l -16.347656,0 q -0.659179,0 -0.944824,-0.263672 -0.285645,-0.263672 -0.285645,-0.65918 0,-0.41748 0.285645,-0.659179 0.285645,-0.263672 0.944824,-0.263672 l 7.250977,0 0,-15.314942 -5.383301,0 q -0.65918,0 -0.966797,-0.263672 -0.285644,-0.263671 -0.285644,-0.659179 0,-0.417481 0.285644,-0.681153 0.285645,-0.263671 0.966797,-0.263671 l 7.229004,0 z m -31.970217,8.481445 0,8.701172 6.328125,0 q 0.65918,0 0.944824,0.263672 0.285645,0.241699 0.285645,0.659179 0,0.395508 -0.285645,0.65918 -0.285644,0.263672 -0.944824,0.263672 l -10.6567382,0 q -0.6591797,0 -0.9448243,-0.263672 Q 1.388,29.359558 1.388,28.96405 q 0,-0.41748 0.2856445,-0.659179 0.2856446,-0.263672 0.9448243,-0.263672 l 2.4829101,0 0,-22.0166018 -2.4829101,0 q -0.6591797,0 -0.9448243,-0.2416993 Q 1.388,5.5192261 1.388,5.1017456 1.388,4.6842651 1.6736445,4.4425659 1.9592891,4.178894 2.6184688,4.178894 l 10.7226562,0 q 3.80127,0 6.196289,2.241211 2.416992,2.2412109 2.416992,5.251465 0,1.779785 -0.791015,3.208008 -0.769043,1.428222 -1.867676,2.241211 -1.647949,1.230468 -3.405762,1.801757 -1.274414,0.417481 -3.164062,0.417481 l -5.778809,0 z m 0,-1.845703 5.888672,0 q 2.043457,0 3.823242,-0.900879 1.801758,-0.922852 2.614746,-2.241211 0.834961,-1.318359 0.834961,-2.680664 0,-2.1752931 -1.867676,-3.911133 -1.867675,-1.7358398 -4.724121,-1.7358398 l -6.569824,0 0,11.4697268 z" />
</svg>
