<?xml version="1.0" encoding="UTF-8" standalone="no"?>
<svg xmlns:svg="http://www.w3.org/2000/svg" xmlns="http://www.w3.org/2000/svg" height="64" width="64" version="1.1">
  <path fill="#bebebe" d="M 22 42 L 22 50.035156 L 13.015625 50.044922 A 2.9775426 2.9775426 0 0 0 13.023438 56 L 50.984375 55.955078 A 2.9775426 2.9775426 0 1 0 50.976562 50 L 42 50.009766 L 42 42 L 22 42 z " />
  <path fill="#bebebe" d="M 7.8574219,8 C 5.672588,8 4,9.8952638 4,12 l 0,28 c 0,2.104736 1.6725885,4 3.8574219,4 L 56.142578,44 C 58.327411,44 60,42.104736 60,40 L 60,12 C 60,9.8952644 58.327412,8 56.142578,8 L 7.8574219,8 Z M 8,12 56,12 56,40 8,40 8,12 Z" />
  <path fill="#bebebe" d="m 24,18 q 0,1.666667 -1.16667,2.833333 Q 21.66667,22 19.999995,22 18.33333,22 17.16667,20.833333 16,19.666667 16,18 16,16.333333 17.16667,15.166667 18.33333,14 19.999995,14 21.66667,14 22.83333,15.166667 24,16.333333 24,18 Z" />
  <path fill="#bebebe" d="m 48,27.481187 0,10.37037 -32,0 0,-4.444444 7.27273,-7.407408 3.63636,3.703704 11.63637,-11.851852 z" />
</svg>
