<?xml version="1.0" encoding="UTF-8" standalone="no"?>
<svg xmlns:svg="http://www.w3.org/2000/svg" xmlns="http://www.w3.org/2000/svg" version="1.1" width="144" height="32" viewBox="0 0 144 32">
  <path fill="#bebebe" d="m 19.414442,31.011987 c 0.442234,-0.178445 1.16589,-0.178445 1.608125,0 0.442234,0.178446 0.08041,0.324447 -0.804063,0.324447 -0.884469,0 -1.246297,-0.146001 -0.804062,-0.324447 z M 6.871064,23.918839 c 0.6191283,-0.161795 1.6322472,-0.161795 2.2513755,0 0.6191282,0.161796 0.1125688,0.294173 -1.1256877,0.294173 -1.2382565,0 -1.744816,-0.132377 -1.1256878,-0.294173 z m 32.524335,0.004 c 0.464346,-0.185816 1.019149,-0.162963 1.232896,0.05078 0.213746,0.213747 -0.166173,0.365778 -0.844266,0.337848 -0.749349,-0.03086 -0.901772,-0.183289 -0.38863,-0.388631 z m 8.965298,0.0134 c 0.442235,-0.178445 1.165891,-0.178445 1.608126,0 0.442234,0.178446 0.08041,0.324447 -0.804063,0.324447 -0.884469,0 -1.246297,-0.146001 -0.804063,-0.324447 z m 21.267458,-0.0134 c 0.464343,-0.185816 1.019146,-0.162963 1.232898,0.05078 0.213746,0.213747 -0.166177,0.365778 -0.844266,0.337848 -0.749354,-0.03086 -0.901772,-0.183289 -0.388632,-0.388631 z m 8.965299,0.0134 c 0.442234,-0.178445 1.16589,-0.178445 1.608125,0 0.442234,0.178446 0.08041,0.324447 -0.804063,0.324447 -0.884469,0 -1.246297,-0.146001 -0.804062,-0.324447 z m 34.132456,-0.0134 c 0.46435,-0.185816 1.01915,-0.162963 1.2329,0.05078 0.21375,0.213747 -0.16618,0.365778 -0.84426,0.337848 -0.74936,-0.03086 -0.90178,-0.183289 -0.38864,-0.388631 z m 25.08676,0 c 0.46434,-0.185816 1.01914,-0.162963 1.2329,0.05078 0.21374,0.213747 -0.16618,0.365778 -0.84427,0.337848 -0.74935,-0.03086 -0.90177,-0.183289 -0.38863,-0.388631 z m -17.36775,-0.64325 c 0.46434,-0.185816 1.01914,-0.162963 1.23289,0.05079 0.21375,0.213747 -0.16617,0.365778 -0.84426,0.337848 -0.74936,-0.03086 -0.90177,-0.183289 -0.38863,-0.388631 z m -101.152033,5.42461 c 0.520885,-1.503598 1.132925,-3.168007 1.360087,-3.698689 0.227163,-0.530681 0.367069,-1.181972 0.310902,-1.447312 -0.05617,-0.265341 0.164342,-0.482438 0.490019,-0.482438 0.325677,0 0.787166,-0.887946 1.025531,-1.973215 0.238365,-1.085268 0.850995,-2.133464 1.3614,-2.329325 0.510406,-0.195861 1.372842,-1.216321 1.916526,-2.267689 0.543684,-1.051368 1.133247,-1.766847 1.310141,-1.589953 0.176893,0.176894 -0.09257,1.144547 -0.598813,2.150341 -0.506242,1.005793 -1.095203,2.749115 -1.308805,3.874049 -0.340664,1.794114 -0.17418,2.127621 1.355445,2.715269 1.728376,0.664005 1.724448,0.668675 -0.443806,0.527666 -2.124053,-0.138134 -2.223736,-0.0348 -3.430667,3.55642 -1.046557,3.114023 -1.48427,3.698689 -2.769038,3.698689 -1.515005,0 -1.519171,-0.01967 -0.578922,-2.733813 z m -14.9997212,-5.303 C 3.1280449,22.894816 1.9142898,21.745046 1.5593528,20.81149 0.79380149,18.797938 0.77593071,18.550092 1.4034379,18.649171 c 1.8314444,0.289176 2.7179975,-0.330561 3.3912874,-2.370648 1.1232331,-3.403431 1.3753177,-2.325765 0.2953586,1.262665 -1.1006248,3.6571 -0.5005888,5.327462 2.1211726,5.904856 2.9001405,0.6387 3.1303255,0.813399 1.1071203,0.840243 -1.0613627,0.01408 -2.8727074,-0.384212 -4.025211,-0.8851 z m 33.6596592,-0.05077 c -0.61181,-0.61181 -0.835296,-1.278454 -0.500794,-1.493837 0.332244,-0.21393 0.807333,-1.040253 1.055751,-1.836275 0.248418,-0.796022 0.714712,-1.447313 1.036206,-1.447313 0.321495,0 1.157584,-1.085485 1.857974,-2.412188 1.631361,-3.090176 1.644762,-2.562725 0.05248,2.065332 -1.39401,4.051759 -1.204875,5.144252 0.799826,4.62001 0.75011,-0.196158 1.061635,-0.102433 0.731466,0.220068 -1.275608,1.245985 -3.921703,1.395407 -5.032907,0.284203 z m 8.689268,-0.113862 c -1.23247,-1.006301 -1.291194,-1.312762 -0.553699,-2.889606 0.453745,-0.970156 1.142857,-1.766178 1.53136,-1.768938 0.388503,-0.0028 1.234793,-1.176853 1.880644,-2.609095 0.645851,-1.432242 1.437378,-2.766683 1.758949,-2.965425 0.321571,-0.198742 0.117088,0.542863 -0.454405,1.648011 -0.571495,1.105147 -1.302936,3.380341 -1.625426,5.055987 -0.486589,2.528293 -0.407367,3.183428 0.465643,3.850692 0.94554,0.7227 0.916581,0.804062 -0.286193,0.804062 -0.736001,0 -1.958593,-0.506559 -2.716873,-1.125688 z m 12.943319,0.353788 c -1.219158,-1.219158 -0.913704,-2.519007 1.014399,-4.316724 0.982468,-0.916026 2.589243,-2.750987 3.570611,-4.07769 1.954869,-2.642762 4.156727,-3.164791 5.660395,-1.342 0.798049,0.967422 0.747901,0.998306 -0.522203,0.321625 -2.347734,-1.250817 -3.296921,-0.868148 -4.924266,1.98525 -2.179834,3.822121 -2.658791,6.19533 -1.351578,6.696956 0.830616,0.318737 0.865441,0.504254 0.176617,0.9409 -1.223063,0.775295 -2.726802,0.688856 -3.623975,-0.208317 z m 8.259177,0.185373 c -0.817487,-0.540846 -0.807516,-0.772503 0.07688,-1.78639 0.558894,-0.640728 0.891622,-1.507189 0.739396,-1.925471 -0.152231,-0.418281 0.280039,-1.058509 0.960585,-1.422729 0.680552,-0.36422 1.605495,-1.55095 2.055422,-2.637177 1.371828,-3.311877 1.354685,-1.756828 -0.02386,2.165398 -1.407464,4.004485 -1.193043,5.206885 0.834012,4.676799 0.800724,-0.209394 1.076132,-0.111241 0.711364,0.253526 -0.934842,0.934845 -4.31707,1.361932 -5.353797,0.676044 z m 9.462364,-0.108247 c -1.718738,-1.001074 -1.310635,-5.094477 0.507911,-5.094477 0.468987,0 1.028878,-0.555055 1.244193,-1.233457 0.571168,-1.799595 2.799592,-4.45847 4.408657,-5.260249 1.121776,-0.558967 1.059349,-0.399557 -0.31648,0.808129 -3.300844,2.897451 -5.302658,9.594105 -3.22945,10.803464 0.96806,0.564696 0.946408,0.632244 -0.202643,0.632244 -0.707575,0 -1.793059,-0.295044 -2.412188,-0.655654 z M 90.979408,23.07914 c -1.217974,-1.217978 -1.227044,-1.348584 -0.178669,-2.573001 0.607447,-0.70944 1.619035,-1.289892 2.247986,-1.289892 1.406055,0 1.418849,0.268344 0.108188,2.268664 -0.988862,1.509199 -0.967204,1.607441 0.482438,2.18797 l 1.517793,0.60782 -1.447312,0.04078 c -0.796022,0.02242 -2.024714,-0.536626 -2.730424,-1.242335 z m 20.419802,0.603886 c -1.20462,-0.71827 -1.55048,-2.537028 -0.48244,-2.537028 0.35379,0 0.64325,-0.42401 0.64325,-0.942244 0,-0.518233 0.53923,-1.230828 1.19828,-1.583542 0.65906,-0.352714 1.56641,-1.530031 2.01633,-2.616258 1.37117,-3.310276 1.37348,-1.739893 0.003,2.242576 -1.64527,4.78207 -1.6246,5.043507 0.36873,4.662459 2.08825,-0.399194 1.16056,0.591144 -1.01365,1.082107 -0.88447,0.199724 -2.11468,0.06109 -2.73381,-0.30807 z m 25.08676,-0.01555 c -1.20376,-0.701124 -1.55206,-2.521474 -0.48244,-2.521474 0.35379,0 0.64325,-0.42401 0.64325,-0.942244 0,-0.518233 0.55932,-1.241583 1.24294,-1.607442 0.68361,-0.36586 1.43369,-1.266246 1.66685,-2.000858 0.23316,-0.734612 0.54532,-1.214267 0.69368,-1.065898 0.14837,0.148368 -0.16752,1.509156 -0.70198,3.023974 -1.25785,3.565124 -1.22541,4.519998 0.15395,4.532068 0.96201,0.0084 0.98539,0.100515 0.16081,0.6334 -1.21554,0.785544 -1.95939,0.774195 -3.37706,-0.05152 z M 52.912929,21.895357 c 0.945704,-1.003003 2.638668,-2.905754 3.762143,-4.228336 1.572695,-1.851408 1.956896,-2.076624 1.669819,-0.97883 -0.424988,1.625145 -5.382081,7.030807 -6.447386,7.030807 -0.387218,0 0.06972,-0.820639 1.015424,-1.823641 z M 84.427797,20.66356 c 1.577841,-1.680491 3.406131,-3.923826 4.062857,-4.985189 0.656733,-1.061362 1.19514,-1.624593 1.196459,-1.251623 0.0045,1.201546 -3.627249,6.44508 -5.464623,7.890354 -2.934307,2.308128 -2.845912,1.596164 0.205307,-1.653542 z m 18.930783,2.629426 c -0.44223,-0.178446 -0.80406,-0.896333 -0.80406,-1.595305 0,-0.698972 0.28946,-1.091961 0.64325,-0.873309 0.35379,0.218653 0.64325,0.091 0.64325,-0.283662 0,-1.046879 1.92164,-0.807565 2.34353,0.291854 0.20537,0.535187 0.0161,1.403575 -0.42058,1.929751 -0.83232,1.002888 -1.09273,1.060339 -2.40539,0.530671 z m 15.63534,-0.06628 c 0.37387,-0.259923 1.03363,-1.348999 1.46612,-2.420168 0.4325,-1.071169 1.35682,-2.303838 2.05405,-2.739264 1.52351,-0.95145 1.51152,-1.082302 0.24234,2.642507 -0.87775,2.576054 -1.27126,3.007795 -2.73381,2.999363 -0.93966,-0.0054 -1.40257,-0.222514 -1.0287,-0.482438 z m 9.17756,-2.07417 c 0.59286,-1.411552 1.34459,-2.569402 1.67052,-2.573 0.32593,-0.0036 1.0912,-0.457771 1.70061,-1.009273 0.95295,-0.862415 0.91503,-0.503903 -0.27098,2.562013 -1.08317,2.800056 -1.6792,3.5671 -2.77852,3.575731 -1.38373,0.01086 -1.38737,-0.01801 -0.32163,-2.555471 z M 13.464378,21.789248 c 0.640346,-0.707575 1.308998,-1.286501 1.485892,-1.286501 0.176893,0 -0.202295,0.578926 -0.842642,1.286501 -0.640346,0.707575 -1.308998,1.2865 -1.485892,1.2865 -0.176893,0 0.202295,-0.578925 0.842642,-1.2865 z M 31.40119,20.824372 c 0.935503,-1.41515 2.274573,-3.441388 2.975711,-4.50275 1.487784,-2.252164 1.648269,-1.785176 0.393954,1.146348 -0.487108,1.138446 -1.82726,2.93829 -2.978115,3.999653 l -2.092464,1.92975 1.700914,-2.573001 z m 65.826808,1.286501 c 0.357461,-0.707575 0.528379,-1.623765 0.37982,-2.035978 -0.148565,-0.412212 0.309937,-0.933578 1.018889,-1.158592 0.708952,-0.225012 1.474973,-0.995046 1.702263,-1.711186 0.2273,-0.716139 0.54853,-1.166813 0.71384,-1.001497 0.54977,0.549769 -1.505113,4.601599 -2.995858,5.907253 -1.468881,1.2865 -1.468881,1.2865 -0.818954,0 z m 34.272782,-6.716164 c 0,-0.332908 0.28615,-0.782136 0.63588,-0.998284 0.36463,-0.225356 0.47247,0.03284 0.25281,0.605287 -0.42763,1.114378 -0.88869,1.318269 -0.88869,0.392997 z M 30.510506,13.426996 c -1.497008,-0.479426 -1.510743,-0.519443 -0.198775,-0.579131 0.775143,-0.03527 1.588248,0.225343 1.806901,0.579131 0.218653,0.353788 0.308101,0.614396 0.198775,0.579131 -0.109326,-0.03527 -0.922432,-0.295875 -1.806901,-0.579131 z m 24.443505,-0.167251 c 0,-0.563705 -0.506559,-1.157296 -1.125687,-1.31909 -1.054988,-0.275698 -1.05372,-0.29886 0.0202,-0.368792 1.162983,-0.07573 2.240575,1.577725 1.506594,2.311709 -0.220615,0.2206 -0.401105,-0.06012 -0.401105,-0.623827 z m 81.692769,0.167251 c -0.82458,-0.532885 -0.8012,-0.624982 0.16081,-0.6334 0.61913,-0.0054 1.12569,0.279612 1.12569,0.6334 0,0.784514 -0.0726,0.784514 -1.2865,0 z m -8.48286,-1.082663 c 0.46434,-0.185817 1.01914,-0.162964 1.23289,0.05078 0.21375,0.213747 -0.16617,0.365779 -0.84426,0.337848 -0.74936,-0.03086 -0.90177,-0.183288 -0.38863,-0.38863 z M 116.48379,6.5120571 c -0.16399,-0.2653407 0.37021,-0.4824376 1.18711,-0.4824376 0.8169,0 1.3511,0.2170969 1.18711,0.4824376 -0.16399,0.2653407 -0.69819,0.4824376 -1.18711,0.4824376 -0.48892,0 -1.02312,-0.2170969 -1.18711,-0.4824376 z M 9.7549686,3.6984246 C 10.191307,3.2588156 10.71035,3.0611752 10.908398,3.2592236 11.106447,3.457272 10.749444,3.8169521 10.115057,4.0585127 9.198298,4.4075946 9.1244117,4.3337086 9.7549686,3.6984246 Z M 18.932004,3.778244 C 18.352248,3.4035768 18.272909,3.1507623 18.733229,3.1448439 c 0.421355,-0.00542 0.944997,0.2796126 1.16365,0.6334001 0.493569,0.7986113 0.270888,0.7986113 -0.964875,0 z M 83.779658,1.4090805 C 84.244001,1.2232644 84.798804,1.2461167 85.012556,1.4598631 85.226302,1.6736098 84.846379,1.8256412 84.16829,1.7977105 83.418936,1.7668448 83.266518,1.6144226 83.779658,1.4090803 Z M 18.560028,30.312312 c 0.196883,-0.619128 1.615061,-4.888701 3.151509,-9.48794 2.614921,-7.827569 2.906342,-8.375561 4.55773,-8.570419 1.655795,-0.195378 1.71577,-0.117694 0.976118,1.264359 -0.736575,1.376302 -0.652415,1.358379 1.287877,-0.274269 3.172491,-2.669475 7.123245,-2.006092 7.123245,1.196086 0,2.347182 -2.255773,6.392379 -4.426674,7.938198 -2.539692,1.80842 -2.938641,1.686765 -1.404442,-0.428267 1.890673,-2.606464 2.726398,-6.986475 1.523527,-7.98477 -0.672622,-0.558226 -1.256173,-0.592641 -2.018019,-0.119013 -1.783605,1.108845 -3.966394,4.804313 -3.966394,6.715121 0,1.120741 0.54524,2.198878 1.447313,2.861862 1.445303,1.062235 1.444458,1.063341 -0.608398,0.796246 -1.983707,-0.258097 -2.10474,-0.136363 -3.455492,3.475514 -1.181693,3.159819 -1.644862,3.74298 -2.972824,3.74298 -1.205673,0 -1.489444,-0.262895 -1.215076,-1.125688 z M 4.9541304,23.941812 C 3.3472607,23.595758 0.92100034,20.842279 0.92100034,19.364754 c 0,-0.530474 1.08548456,-4.116635 2.41218796,-7.969245 C 5.4121187,5.3585083 5.612073,4.3053771 4.7805011,3.772728 4.1016387,3.3378942 4.9415594,3.1517741 7.6140102,3.1448439 11.264549,3.1353773 11.370619,3.1811548 10.33912,4.3209479 9.3288064,5.4373321 4.7805011,17.933592 4.7805011,19.592999 c 0,1.567568 2.3429209,3.643561 4.112044,3.643561 4.2186149,0 6.1315269,-2.53697 9.3366329,-12.382565 1.094124,-3.3609815 1.989319,-6.1925691 1.989322,-6.2924165 2e-6,-0.099847 -0.651287,-0.4433277 -1.447309,-0.7632894 -1.173995,-0.4718886 -0.866673,-0.5894485 1.627383,-0.6225219 l 3.074695,-0.040773 -1.281106,1.7689379 c -0.704609,0.9729158 -2.051394,3.939907 -2.992855,6.5933142 -3.398751,9.579008 -5.367895,12.048807 -9.952462,12.482879 -1.572021,0.148841 -3.5037429,0.1316 -4.2927156,-0.03831 z M 38.068695,23.667474 c -0.619128,-0.360609 -1.125687,-0.922658 -1.125687,-1.248998 0,-0.32634 1.642633,-5.23282 3.650296,-10.903289 3.4925,-9.8642647 3.72523,-10.3099435 5.383791,-10.3099435 l 1.733496,0 -3.212453,8.8446895 c -4.126867,11.362301 -4.316622,12.376173 -2.321325,12.403022 1.47542,0.01985 1.483444,0.04835 0.271689,0.964875 -1.448831,1.095841 -2.795217,1.172584 -4.379807,0.249644 z m 9.166315,0.228044 c -0.530682,-0.20084 -1.199763,-0.763001 -1.486847,-1.249246 -0.287085,-0.486245 -0.787747,-0.719825 -1.112582,-0.519066 -0.324835,0.200759 0.314732,-1.403879 1.421259,-3.565863 2.219653,-4.336862 5.480219,-7.064097 8.445532,-7.064097 5.297866,0 5.832993,4.193191 1.177103,9.223741 -2.848814,3.078064 -5.783887,4.181447 -8.444465,3.174531 z m 6.293264,-4.036021 c 1.741406,-3.43165 1.726926,-7.268636 -0.02868,-7.601373 -2.041742,-0.386968 -5.475917,8.818872 -3.883762,10.411027 1.011123,1.011123 2.525412,-0.07634 3.912444,-2.809654 z m 6.057138,3.730851 c -1.390816,-1.390814 -0.862039,-4.226674 1.233027,-6.612825 3.541587,-4.033639 5.644809,-5.158652 9.644159,-5.158652 l 3.608466,0 -1.517903,4.034998 c -2.078238,5.524548 -2.027653,6.826051 0.24841,6.390954 l 1.766314,-0.337651 -1.515948,1.227538 c -1.694218,1.371893 -3.418282,1.555456 -5.27521,0.561656 -1.166985,-0.624551 -1.179734,-0.764292 -0.205358,-2.251375 0.571373,-0.872022 0.875605,-1.585494 0.676075,-1.585494 -0.19953,0 0.07766,-1.054127 0.615977,-2.342506 0.883902,-2.11548 0.879554,-2.441714 -0.0449,-3.366159 -1.344779,-1.344779 -2.775052,-0.46735 -4.687621,2.875716 -1.761477,3.078957 -1.903435,5.397853 -0.332207,5.426407 1.018561,0.01851 1.00686,0.110336 -0.122944,0.964875 -1.514192,1.145283 -3.052685,1.210171 -4.090338,0.172518 z m 17.311971,-0.278662 c -1.22507,-0.858072 -1.43531,-1.448488 -1.147449,-3.222362 0.648724,-3.99765 3.301642,-6.653512 8.628403,-8.637993 1.566288,-0.583519 1.482376,-0.418511 -0.718793,1.413463 -3.798618,3.161481 -5.681494,9.063381 -3.195789,10.017235 C 83.92803,24.211394 89.549894,8.3250479 87.181345,3.8993747 86.775569,3.1411763 85.509499,2.2266978 84.367858,1.8672003 82.408699,1.2502717 82.454685,1.2291645 85.186767,1.4913142 c 2.219657,0.2129812 3.30711,0.7393528 4.663564,2.2573614 2.040338,2.2833394 2.159802,3.6258937 0.746196,8.3860194 -1.555746,5.238767 -4.598171,9.484587 -8.111629,11.320105 -2.266151,1.183893 -3.747106,1.145961 -5.587515,-0.143114 z m 14.221765,0.04921 c -2.475316,-1.733774 -1.458756,-4.787898 1.593646,-4.787898 1.668018,0 1.848353,0.699783 0.675413,2.620905 -0.684187,1.120604 -0.617907,1.454962 0.444569,2.242648 1.233921,0.914791 1.233709,0.925698 -0.01769,0.925698 -0.696479,0 -1.909656,-0.450607 -2.695945,-1.00135 z m 19.926272,0.229453 c -1.08359,-1.083597 -0.99233,-1.776054 0.91075,-6.910301 1.43968,-3.884013 1.90412,-4.539551 3.21626,-4.539551 1.8625,0 1.88149,0.357373 0.24742,4.656663 -1.68982,4.445946 -1.65621,5.630118 0.16049,5.655796 1.4111,0.01995 1.41607,0.04408 0.19868,0.964875 -1.51201,1.143623 -3.68336,1.222759 -4.7336,0.172518 z m 24.96317,-0.186874 c -0.73459,-0.885129 -0.74811,-1.532808 -0.0783,-3.754138 1.91234,-6.342439 1.52865,-7.623582 -1.52638,-5.096652 -0.74851,0.619128 -0.40959,0.184934 0.75317,-0.964875 2.19226,-2.167852 5.6152,-2.882797 6.15939,-1.286501 0.15076,0.442235 -0.37939,2.680742 -1.1781,4.97446 -0.79872,2.293719 -1.29821,4.419581 -1.10998,4.724138 0.18822,0.304558 1.05901,0.416719 1.93509,0.249247 1.3412,-0.256387 1.45496,-0.166598 0.72004,0.568317 -1.47333,1.473333 -4.66495,1.802908 -5.67489,0.586004 z m -33.20704,-0.611777 c -0.68749,-1.791594 0.06,-3.250841 1.76686,-3.449434 1.92742,-0.224249 2.56466,0.823418 1.78181,2.929422 -0.60684,1.632532 -2.98786,1.98144 -3.54867,0.520012 z m 16.1577,-0.365032 c 2.91116,-9.172243 3.30563,-9.962198 5.07952,-10.172005 l 1.75404,-0.20746 -1.05865,2.047198 c -0.58225,1.125958 -0.78425,1.877612 -0.44888,1.670342 0.33537,-0.207271 -0.0408,1.42528 -0.83589,3.627889 -1.24019,3.435632 -1.69329,4.034474 -3.18834,4.213948 -1.52711,0.183324 -1.68815,0.03737 -1.3018,-1.179912 z m 8.03878,0.428159 c 0,-0.475296 0.57892,-2.54685 1.2865,-4.603452 1.57728,-4.584457 1.60313,-5.464856 0.16081,-5.477476 -0.96201,-0.0084 -0.9854,-0.100515 -0.16081,-0.6334 2.36425,-1.527897 4.97978,-0.597638 4.52143,1.608125 -0.0735,0.353788 -0.19719,1.222175 -0.27484,1.92975 -0.0776,0.707576 -0.68788,2.806179 -1.35608,4.663564 -0.98728,2.744331 -1.4924,3.377063 -2.69596,3.377063 -0.81458,0 -1.48105,-0.388878 -1.48105,-0.864174 z m -29.730215,-3.14054 0.316692,-3.392662 -1.535303,1.26541 c -0.844421,0.695976 0.05673,-0.455167 2.002566,-2.558096 1.945832,-2.102929 3.56836,-3.908944 3.60562,-4.013366 0.0373,-0.104424 -0.0728,1.336183 -0.24452,3.201346 -0.34399,3.73578 -1.28625,6.016243 -3.20232,7.750262 -1.238038,1.120411 -1.254048,1.082148 -0.942735,-2.252894 z M 116.49161,6.5656611 c -0.77765,-0.7776444 -0.44656,-2.6429747 0.53604,-3.0200333 1.25714,-0.4824097 2.89462,0.1611643 2.89462,1.137662 0,1.6314381 -2.37723,2.9358027 -3.43066,1.8823713 z M 78.111016,4.8218818 c 0,-0.1335744 0.506559,-0.6401338 1.125688,-1.1256877 1.020233,-0.8001199 1.042985,-0.777368 0.242865,0.2428625 -0.840322,1.0714926 -1.368553,1.4122421 -1.368553,0.8828252 z M 18.288754,30.981407 c 0,-0.298124 1.398525,-4.731655 3.107833,-9.85229 2.934867,-8.792088 3.206633,-9.321889 4.883081,-9.51945 1.585917,-0.186892 1.725739,-0.05321 1.311015,1.253469 -0.450471,1.419309 -0.403073,1.411208 1.598773,-0.273234 3.678808,-3.0955135 6.878787,-1.612964 6.272652,2.906117 -0.615306,4.587443 -5.140806,8.866229 -9.377454,8.866229 -1.724022,0 -2.042952,0.339546 -3.17203,3.377063 -1.027625,2.764584 -1.560761,3.413978 -2.939581,3.580602 -0.926359,0.111947 -1.684289,-0.04038 -1.684289,-0.338506 z m 12.06094,-10.454145 c 1.675089,-3.321806 1.882745,-6.330301 0.474246,-6.870793 -1.289703,-0.494906 -2.705752,0.754113 -4.219948,3.722182 -1.43263,2.808186 -1.566114,4.46992 -0.448812,5.587221 1.339107,1.339107 2.68373,0.557369 4.194514,-2.43861 z M 3.8156259,23.619467 C 0.27205037,21.681281 0.1832632,19.995772 3.1723758,11.408272 4.4106323,7.8508529 5.4237513,4.7125489 5.4237513,4.4342636 5.4237513,4.1559783 4.7724605,3.7015107 3.9764385,3.4243357 2.7743821,3.0057794 2.9923873,2.8777961 5.2629387,2.669077 6.7665359,2.5308597 9.2269676,2.5067819 10.730565,2.6155708 l 2.733813,0.197798 -1.881561,0.9648752 c -1.6035124,0.8222905 -2.2501968,2.0345397 -4.3761346,8.203323 -2.2412321,6.503331 -2.4089788,7.417905 -1.6517467,9.005502 0.6646819,1.393556 1.3568068,1.809555 3.2745079,1.968131 3.8475204,0.318153 6.1625024,-2.493511 8.7730454,-10.655309 2.10833,-6.5916438 2.204085,-8.521647 0.422791,-8.521647 -0.520906,0 -1.125999,-0.2894625 -1.344651,-0.6432501 -0.250234,-0.4048858 1.225476,-0.6420662 3.98235,-0.640055 l 4.379901,0.0032 -1.70473,1.4441177 c -1.045685,0.8858244 -2.498548,3.5578923 -3.75807,6.9117433 -2.80861,7.47876 -4.893017,11.148832 -7.058434,12.427975 -2.061115,1.21753 -6.7637553,1.399833 -8.7060201,0.337497 z m 33.8992821,-0.02912 c -0.424545,-0.424545 -0.775535,-1.075836 -0.779976,-1.447313 -0.0044,-0.371477 1.642515,-5.379179 3.659904,-11.128227 3.564693,-10.15847377 3.718883,-10.45281461 5.475702,-10.45281461 0.994247,0 1.807722,0.15044823 1.807722,0.33432938 0,0.18388113 -1.632543,4.83267573 -3.627874,10.33065423 -2.663715,7.339662 -3.437639,10.186559 -2.912073,10.712125 1.164031,1.164032 3.781703,-0.4151 4.254204,-2.566384 0.956133,-4.35324 7.029909,-9.081935 10.535259,-8.202148 1.995831,0.500921 2.662283,1.359109 2.675888,3.445713 0.04001,6.134751 -9.04655,12.26807 -12.725228,8.589392 -1.112312,-1.112313 -1.22924,-1.112443 -3.055438,-0.0034 -2.204002,1.338521 -4.210931,1.485242 -5.30809,0.388082 z m 15.585031,-3.377955 c 1.528819,-3.132343 1.763097,-7.750272 0.393193,-7.750272 -2.126051,0 -5.464332,7.935562 -4.199324,9.982386 0.821442,1.329122 2.567866,0.304929 3.806131,-2.232114 z m 6.317636,3.723843 c -1.299578,-0.524392 -0.923193,-4.351935 0.660373,-6.715426 1.869652,-2.790486 7.410081,-6.569454 8.778364,-5.987476 0.557743,0.237228 1.990197,0.382206 3.183226,0.322175 1.849486,-0.09306 2.099942,0.06049 1.699531,1.041982 -2.10593,5.162072 -2.997378,8.712231 -2.350172,9.359436 1.095153,1.095154 3.75449,-0.641866 4.171001,-2.724402 0.654269,-3.271353 4.33795,-6.696982 8.622807,-8.018761 1.872366,-0.577581 1.884999,0.427522 0.01582,1.256637 -4.20813,1.866584 -6.896639,11.964094 -2.763171,10.377934 1.366064,-0.524207 4.669346,-7.65049 5.597569,-12.075822 0.801361,-3.8205127 0.441572,-6.3444184 -1.128171,-7.9141635 -1.434139,-1.4341389 -2.946188,-1.2577205 -5.796063,0.6762559 -1.36654,0.9273615 -2.077589,1.1956678 -1.580105,0.5962363 0.497483,-0.5994315 2.058683,-1.678687 3.469331,-2.3983455 2.214903,-1.12996126 2.900369,-1.2079336 5.024471,-0.5715378 5.528227,1.6562968 5.759128,9.6485016 0.507801,17.5765566 -3.38906,5.116544 -8.881779,7.251885 -11.322257,4.401619 -1.028628,-1.201357 -1.082867,-1.2014 -3.049141,-0.0024 -2.33914,1.426368 -5.080396,1.589203 -6.098661,0.362271 -0.394035,-0.474786 -0.565133,-1.014545 -0.380212,-1.199464 0.184915,-0.184919 0.44839,-0.881943 0.585486,-1.54894 0.137103,-0.666999 0.706649,-2.288186 1.265659,-3.60264 0.981954,-2.308965 0.968761,-2.415401 -0.38941,-3.142273 -1.227875,-0.657136 -1.592276,-0.518479 -2.879272,1.095568 -3.20938,4.024944 -3.581095,7.84897 -0.690966,7.108293 1.381618,-0.354077 1.374838,-0.318791 -0.168628,0.877593 -1.561747,1.210555 -3.33915,1.513289 -4.985189,0.849098 z m 31.082766,-0.58481 c -2.087958,-2.087957 -0.278991,-5.885044 2.462136,-5.168114 1.044709,0.273239 2.201498,-0.539865 5.097031,-3.582693 l 3.745612,-3.93615 -0.39872,2.506951 c -0.21929,1.378823 -0.53806,3.421416 -0.70836,4.539096 -0.41496,2.72328 -4.729179,6.651732 -7.304926,6.651732 -1.035073,0 -2.336825,-0.45487 -2.892773,-1.010822 z m 5.706831,-1.062055 c 0.550738,-0.786296 1.001348,-2.428797 1.001348,-3.650003 l 0,-2.220376 -1.608125,1.510755 c -0.884469,0.830915 -1.608126,1.87037 -1.608126,2.309899 0,0.439529 -0.34154,0.91299 -0.758977,1.052136 -1.037916,0.345973 -0.159931,2.427216 1.023938,2.427216 0.521728,0 1.399198,-0.643332 1.949942,-1.429627 z m 14.670418,1.646865 c -1.22464,-0.494153 -0.97882,-2.648758 0.88712,-7.775427 1.58795,-4.362889 1.82069,-4.663563 3.6098,-4.663563 1.55717,0 1.83212,0.209099 1.48016,1.125687 -2.02025,5.261273 -3.13068,9.171703 -2.72083,9.581547 0.27034,0.270344 1.34888,0.167924 2.39674,-0.227599 2.4968,-0.942438 2.4197,-0.482422 -0.18537,1.105917 -2.03135,1.23854 -3.82096,1.51788 -5.46762,0.853438 z m 7.8751,-1.48231 c 0.25386,-1.155806 1.10742,-4.021524 1.8968,-6.368261 1.24552,-3.702801 1.66171,-4.293698 3.14864,-4.470333 1.93482,-0.229841 1.95407,-0.191612 1.07209,2.128175 -0.4953,1.302741 -0.45869,1.577057 0.16081,1.204898 0.61601,-0.370059 0.63231,-0.266653 0.0702,0.445677 -0.40254,0.510147 -1.25142,2.591949 -1.88641,4.626228 -0.63499,2.034278 -1.51219,3.698688 -1.94932,3.698688 -0.43714,0 -1.28521,0.188189 -1.8846,0.418198 -0.93796,0.35993 -1.02549,0.125399 -0.62825,-1.68327 z m 7.41174,1.759765 c 0.005,-0.09519 0.72549,-2.477771 1.6004,-5.29463 1.69668,-5.462609 1.45171,-6.738974 -1.05856,-5.515337 l -1.51637,0.739161 1.52865,-1.330979 c 3.26737,-2.8448553 7.02033,-2.141176 6.19156,1.160914 -0.3795,1.512056 -0.24991,1.467742 2.21187,-0.756331 2.8018,-2.531251 4.54216,-2.946417 5.83271,-1.391401 0.65492,0.789126 0.54914,1.675374 -0.56449,4.729606 -0.75373,2.067183 -1.37042,4.235355 -1.37042,4.818159 0,1.234113 1.95869,1.416651 3.0876,0.287745 0.58161,-0.581612 0.7719,-0.585684 0.7719,-0.01652 0,0.886598 -3.3035,2.718169 -4.9026,2.718169 -0.60883,0 -1.6048,-0.450523 -2.21325,-1.001163 -1.0444,-0.945169 -1.03123,-1.231966 0.23544,-5.127932 1.38732,-4.267033 1.1809,-5.556928 -0.70863,-4.428371 -0.87124,0.520364 -4.2453,6.261872 -5.37461,9.14578 -0.19624,0.501115 -3.77593,1.706494 -3.7512,1.263129 z m -23.56288,-1.421994 c -1.02961,-2.683142 1.54067,-5.279676 3.39285,-3.427495 0.90041,0.900401 0.96112,1.376143 0.34749,2.722909 -0.8162,1.791377 -3.15428,2.231813 -3.74034,0.704586 z M 116.49161,6.5656611 c -0.72698,-0.726973 -0.47497,-2.5916039 0.45451,-3.3630026 1.14615,-0.951217 2.97615,-0.2385551 2.97615,1.1590062 0,1.9101256 -2.26768,3.3669772 -3.43066,2.2039964 z" />
</svg>
