<?xml version="1.0" encoding="UTF-8" standalone="no"?>
<svg xmlns:svg="http://www.w3.org/2000/svg" xmlns="http://www.w3.org/2000/svg" width="92" height="32" viewBox="0 0 92 32" version="1.1">
  <path fill="#bebebe" d="m 86.488183,13.236531 c -1.534921,0.650478 -1.709252,1.239019 -1.709252,2.912165 l 0,5.080234 c 0,2.38556 -0.872232,3.562928 -2.755525,3.562928 -1.883582,0 -2.755526,-1.177368 -2.755526,-3.562928 l 0,-9.819958 c 0,-2.3855608 0.871944,-3.5321027 2.755526,-3.5321027 1.081198,0 1.953141,0.4954934 2.61583,1.5489877 1.151046,-1.0837491 2.441787,-1.6414645 3.732529,-1.6414645 1.534631,0 2.790449,1.11486 2.790449,2.4158155 0,1.952004 -2.441787,2.106703 -4.674031,3.036323 M 68.140718,25.070716 c -5.336431,0 -8.301212,-2.478609 -8.301212,-7.156111 l 0,-6.505633 c 0,-2.3855608 0.871943,-3.5321027 2.755526,-3.5321027 1.848658,0 2.720313,1.1465419 2.720313,3.5321027 l 0,5.514075 c 0,2.292513 0.593417,3.562643 2.825373,3.562643 2.232533,0 2.825373,-1.27013 2.825373,-3.562643 l 0,-5.514075 c 0,-2.3855608 0.872232,-3.5321027 2.755526,-3.5321027 1.883871,0 2.72089,1.1465419 2.72089,3.5321027 l 0,6.505633 c 0,4.677502 -2.96478,7.156111 -8.301789,7.156111 M 48.189928,12.338022 c -2.023277,0 -3.593122,1.548987 -3.593122,3.996484 0,2.509149 1.535209,4.089247 3.593122,4.089247 2.057625,0 3.626892,-1.611209 3.626892,-4.089247 0,-2.447497 -1.604191,-3.996484 -3.626892,-3.996484 m 7.568676,15.644288 c -1.604191,2.38556 -4.464777,3.65569 -8.371348,3.65569 -5.022982,0 -8.057322,-1.641464 -8.057322,-3.562643 0,-1.239018 1.01135,-2.137528 2.371651,-2.137528 1.360301,0 2.999993,1.301241 5.894925,1.301241 2.685967,0 4.290158,-1.45594 4.290158,-4.120073 0,-0.18581 -0.03492,-0.372191 -0.03492,-0.588826 -1.185393,1.517876 -2.825374,2.292513 -4.987481,2.292513 -4.32537,0 -7.952839,-3.531532 -7.952839,-8.488178 0,-4.956645 3.871648,-8.6434466 8.545679,-8.6434466 1.883294,0 3.279096,0.5577154 4.394641,1.7347976 0.628342,-1.0223833 1.605057,-1.5489877 2.441787,-1.5489877 1.883583,0 2.755526,1.1465419 2.755526,3.5321027 l 0,9.819958 c 0,2.943276 -0.209255,5.173567 -1.290453,6.75338 M 33.958001,24.791858 c -1.883005,0 -2.720313,-1.177368 -2.720313,-3.562928 l 0,-5.514076 c 0,-2.478323 -0.732536,-3.717341 -2.511635,-3.717341 -1.988065,0 -2.755237,1.239018 -2.755237,3.65569 l 0,5.575727 c 0,2.38556 -0.871943,3.562928 -2.755525,3.562928 -1.883871,0 -2.755526,-1.177368 -2.755526,-3.562928 l 0,-5.514076 c 0,-2.478323 -0.697612,-3.717341 -2.476711,-3.717341 -1.987777,0 -2.755526,1.239018 -2.755526,3.65569 l 0,5.575727 c 0,2.38556 -0.872231,3.562928 -2.755236,3.562928 -1.883871,0 -2.755526,-1.177368 -2.755526,-3.562928 l 0,-9.819958 c 0,-2.3855608 0.871655,-3.5321027 2.755526,-3.5321027 1.081198,0 1.952852,0.4954934 2.615541,1.5489877 1.151334,-1.1148601 2.546559,-1.6106389 4.395217,-1.6106389 2.371651,0 4.185674,0.7746365 5.476127,2.2925129 1.674039,-1.6420352 3.279096,-2.2925129 5.545975,-2.2925129 3.8018,0 6.208375,2.1994649 6.208375,6.4125859 l 0,7.001126 c 0,2.38556 -0.871655,3.562928 -2.755526,3.562928 M 3.9263238,7.8768693 c 1.8486583,0 2.7203129,1.1465419 2.7203129,3.5321027 l 0,9.819958 c 0,2.38556 -0.8364421,3.562928 -2.7203129,3.562928 -1.8832936,0 -2.7555255,-1.177368 -2.7555255,-3.562928 l 0,-9.819958 c 0,-2.3855608 0.8722319,-3.5321027 2.7555255,-3.5321027 m 0,-1.8718002 C 2.1472247,6.0050691 0.752,4.7660504 0.752,3.1859519 c 0,-1.5489874 1.4301486,-2.8188317 3.1743238,-2.8188317 1.7438865,0 3.1391112,1.2698443 3.1391112,2.8188317 0,1.5800985 -1.3952247,2.8191172 -3.1391112,2.8191172" />
</svg>
