<?xml version="1.0" encoding="UTF-8" standalone="no"?>
<svg xmlns:svg="http://www.w3.org/2000/svg" xmlns="http://www.w3.org/2000/svg" height="32" width="32" version="1.1">
  <path fill="#bebebe" d="M 22,13.814815 22,19 10,19 10,16.777778 12.727273,13.074074 14.090908,14.925926 18.454547,9 Z M 14,9 Q 14,9.833334 13.416665,10.416666 12.833335,11 11.999997,11 11.166665,11 10.583335,10.416666 10,9.833334 10,9 10,8.166666 10.583335,7.583334 11.166665,7 11.999997,7 12.833335,7 13.416665,7.583334 14,8.166666 14,9 Z M 3.928711,4 C 2.836294,4 2,4.947632 2,6 l 0,14 c 0,1.052368 0.8362943,2 1.928711,2 l 24.142578,0 C 29.163705,22 30,21.052368 30,20 L 30,6 C 30,4.947632 29.163706,4 28.071289,4 L 3.928711,4 Z M 4,6 28,6 28,20 4,20 4,6 Z m 7,15 0,4.017578 -4.4921875,0.0049 A 1.4887713,1.4887713 0 0 0 6.511719,28 L 25.492187,27.97754 A 1.4887713,1.4887713 0 1 0 25.488281,25 L 21,25.004883 21,21 11,21 Z" />
</svg>
